# Blender 3.1.0
# www.blender.org
mtllib left_arm_upper.mtl
o left_arm_upper
v 0.249492 -0.437585 0.249492
v 0.249492 -0.437586 -0.249492
v 0.249492 0.437585 -0.249492
v 0.249492 0.437586 0.249492
v 0.000000 0.939597 0.000000
v -0.249492 0.437585 0.249492
v -0.249492 0.437585 -0.249492
v -0.249492 -0.437586 0.249492
v 0.000000 -0.939598 -0.000000
v -0.249492 -0.437586 -0.249492
vn 1.0000 -0.0000 -0.0000
vn 0.8955 0.4451 -0.0000
vn -0.8955 0.4451 -0.0000
vn -0.0000 0.4451 0.8955
vn -0.0000 0.4451 -0.8955
vn -0.0000 -0.0000 1.0000
vn 0.8955 -0.4451 -0.0000
vn -0.8955 -0.4451 -0.0000
vn -0.0000 -0.4451 0.8955
vn -0.0000 -0.4451 -0.8955
vn -1.0000 -0.0000 -0.0000
vn -0.0000 -0.0000 -1.0000
vt 0.625000 0.750000
vt 0.000000 0.000000
vt 0.000000 0.000000
vt 0.625000 0.500000
vt 0.625000 0.500000
vt 0.000000 0.000000
vt 0.625000 0.750000
vt 0.000000 0.000000
vt 0.750000 0.625000
vt 0.875000 0.750000
vt 0.000000 0.000000
vt 0.875000 0.500000
vt 0.000000 0.000000
vt 0.875000 0.750000
vt 0.000000 0.000000
vt 0.750000 0.625000
vt 0.875000 0.500000
vt 0.000000 0.000000
s 1
usemtl purple
f 1/1/1 3/5/1 4/7/1
f 3/5/2 5/9/2 4/7/2
f 6/10/3 5/9/3 7/12/3
f 4/7/4 5/9/4 6/10/4
f 7/12/5 5/9/5 3/5/5
f 1/2/6 6/11/6 8/15/6
f 2/4/7 1/1/7 9/16/7
f 8/14/8 10/17/8 9/16/8
f 1/1/9 8/14/9 9/16/9
f 10/17/10 2/4/10 9/16/10
f 8/15/11 7/13/11 10/18/11
f 10/18/12 3/6/12 2/3/12
f 1/1/1 2/4/1 3/5/1
f 1/2/6 4/8/6 6/11/6
f 8/15/11 6/11/11 7/13/11
f 10/18/12 7/13/12 3/6/12
