# Blender 3.1.0
# www.blender.org
mtllib right_leg_lower.mtl
o right_leg_lower
v 0.296872 0.645974 0.296871
v 0.296872 0.645974 -0.296871
v 0.000001 1.081019 0.000000
v 0.200137 -0.632581 -0.225474
v 0.200137 -0.632581 0.225474
v -0.296870 0.645975 0.296871
v -0.200138 -0.632581 0.225474
v -0.000001 -1.134593 -0.000000
v -0.200139 -0.632581 -0.225474
v -0.296871 0.645975 -0.296871
vn 0.8260 0.5637 -0.0000
vn 0.9971 -0.0754 -0.0000
vn 0.9972 -0.0754 -0.0000
vn -0.0000 0.5637 0.8260
vn -0.0000 -0.0558 0.9984
vn 0.9289 -0.3703 -0.0000
vn -0.0000 -0.4097 0.9122
vn -0.9289 -0.3703 -0.0000
vn -0.0000 -0.4097 -0.9122
vn -0.0000 -0.0558 -0.9984
vn -0.9972 -0.0754 -0.0000
vn -0.0000 0.5637 -0.8260
vn -0.8260 0.5637 -0.0000
vt 0.875000 0.750000
vt 0.000000 0.000000
vt 0.875000 0.500000
vt 0.000000 0.000000
vt 0.750000 0.625000
vt 0.875000 0.500000
vt 0.000000 0.000000
vt 0.875000 0.750000
vt 0.000000 0.000000
vt 0.000000 0.000000
vt 0.625000 0.750000
vt 0.000000 0.000000
vt 0.625000 0.750000
vt 0.750000 0.625000
vt 0.000000 0.000000
vt 0.625000 0.500000
vt 0.000000 0.000000
vt 0.625000 0.500000
s 1
usemtl brown
f 1/1/1 2/3/1 3/5/1
f 2/4/2 5/9/2 4/7/3
f 6/11/4 1/1/4 3/5/4
f 5/9/5 6/10/5 7/12/5
f 5/8/6 8/14/6 4/6/6
f 7/13/7 8/14/7 5/8/7
f 9/16/8 8/14/8 7/13/8
f 4/6/9 8/14/9 9/16/9
f 10/17/10 4/7/10 9/15/10
f 6/11/11 9/16/11 7/13/11
f 2/3/12 10/18/12 3/5/12
f 10/18/13 6/11/13 3/5/13
f 2/4/2 1/2/3 5/9/2
f 5/9/5 1/2/5 6/10/5
f 10/17/10 2/4/10 4/7/10
f 6/11/11 10/18/11 9/16/11
