# Blender 3.1.0
# www.blender.org
mtllib torso_lower.mtl
o torso_lower
v 0.000000 0.677586 -0.222287
v -0.371497 0.650319 -0.224599
v -0.390810 0.671380 0.077329
v 0.000000 1.041271 0.102664
v -0.371497 0.650319 0.381240
v 0.000000 0.677586 0.402482
v -0.795561 0.589907 -0.208619
v -0.818857 0.602609 0.067957
v -0.795561 0.589907 0.346696
v -0.963046 0.318452 0.031590
v -0.923761 0.307742 0.342120
v -0.923761 0.307742 -0.274036
v -0.980811 -0.010726 -0.332105
v -1.030102 -0.011131 -0.017534
v -0.980291 -0.012327 0.306913
v -0.826446 -0.526510 -0.435249
v -0.313681 -0.604219 -0.458630
v -0.324294 -0.613980 -0.109680
v -0.653379 -1.019936 -0.035323
v -0.319669 -0.611546 0.264224
v -0.823806 -0.534037 0.234884
v 0.000000 -0.674324 -0.398226
v 0.000000 -0.697012 -0.069809
v 0.000000 -0.681948 0.272152
v -0.282085 -0.573681 -0.702969
v 0.000000 -0.613912 -0.653330
v 0.000000 -0.342683 -0.695960
v -0.355418 -0.313473 -0.714041
v 0.000000 -0.012328 -0.699564
v -0.380936 -0.012328 -0.691600
v -0.817577 -0.272080 -0.655923
v -0.839713 -0.012327 -0.611939
v -0.738039 -0.517233 -0.686578
v -0.946381 -0.274877 -0.390904
v -0.363399 0.307742 -0.615920
v -0.811078 0.277022 -0.554864
v 0.000000 0.318452 -0.624304
v -0.316099 0.589908 -0.505046
v -0.727863 0.552996 -0.470363
v 0.000000 0.602609 -0.510583
v 0.000000 -0.625098 0.569451
v -0.297328 -0.592001 0.557418
v -0.734801 -0.536458 0.520340
v -0.812568 -0.294893 0.563075
v -0.362969 -0.331376 0.639433
v 0.000000 -0.343107 0.691855
v -0.839713 -0.012327 0.616888
v -0.380936 -0.012328 0.718049
v 0.000000 -0.012328 0.773581
v -0.811078 0.277022 0.637131
v -0.363399 0.307742 0.721016
v 0.000000 0.318452 0.763162
v -0.727863 0.552996 0.614594
v -0.316099 0.589908 0.666989
v 0.000000 0.602609 0.691417
v -0.940047 -0.290986 0.267794
v -1.001756 -0.270834 -0.076108
v 0.390811 0.671380 0.077329
v 0.371497 0.650318 -0.224599
v 0.371497 0.650318 0.381240
v 0.818857 0.602609 0.067957
v 0.795561 0.589907 -0.208619
v 0.795561 0.589907 0.346696
v 0.923761 0.307742 0.342120
v 0.963046 0.318452 0.031590
v 0.923761 0.307742 -0.274036
v 1.030102 -0.011132 -0.017534
v 0.980811 -0.010727 -0.332105
v 0.980291 -0.012328 0.306913
v 0.826445 -0.526511 -0.435249
v 0.653378 -1.019937 -0.035323
v 0.324294 -0.613980 -0.109680
v 0.313681 -0.604219 -0.458630
v 0.823805 -0.534038 0.234884
v 0.319668 -0.611547 0.264224
v 0.282085 -0.573681 -0.702969
v 0.355418 -0.313473 -0.714041
v 0.380936 -0.012328 -0.691600
v 0.839713 -0.012328 -0.611939
v 0.817577 -0.272080 -0.655923
v 0.738039 -0.517233 -0.686578
v 0.946381 -0.274878 -0.390904
v 0.363400 0.307742 -0.615920
v 0.811078 0.277022 -0.554864
v 0.316099 0.589907 -0.505046
v 0.727864 0.552995 -0.470363
v 0.297327 -0.592001 0.557418
v 0.734801 -0.536458 0.520340
v 0.812568 -0.294894 0.563075
v 0.362969 -0.331377 0.639433
v 0.839713 -0.012328 0.616888
v 0.380936 -0.012328 0.718049
v 0.811078 0.277022 0.637131
v 0.363400 0.307742 0.721016
v 0.727864 0.552995 0.614594
v 0.316099 0.589907 0.666989
v 0.940046 -0.290986 0.267794
v 1.001756 -0.270835 -0.076108
vn -0.3783 0.7933 -0.4770
vn -0.3322 0.8466 -0.4158
vn -0.5032 0.5758 -0.6444
vn -0.3634 0.8312 0.4209
vn -0.4179 0.7665 0.4877
vn -0.5462 0.5328 0.6463
vn -0.1519 0.9862 -0.0660
vn -0.1485 0.9864 -0.0709
vn -0.1435 0.9866 -0.0780
vn -0.1515 0.9859 0.0706
vn -0.1547 0.9858 0.0657
vn -0.1468 0.9861 0.0777
vn -0.8992 0.4232 0.1112
vn -0.8985 0.4243 0.1125
vn -0.9069 0.4105 0.0945
vn -0.8869 0.4481 -0.1121
vn -0.8874 0.4466 -0.1140
vn -0.8827 0.4601 -0.0955
vn -0.9676 0.2091 -0.1412
vn -0.9677 0.2084 -0.1421
vn -0.9673 0.2165 -0.1319
vn -0.9760 0.1671 0.1396
vn -0.9758 0.1675 0.1402
vn -0.9788 0.1587 0.1293
vn 0.2115 -0.8118 -0.5443
vn 0.1871 -0.8374 -0.5136
vn 0.4171 -0.4795 -0.7721
vn 0.3260 -0.7177 0.6154
vn 0.4033 -0.7322 0.5489
vn -0.1286 -0.5160 0.8468
vn -0.2255 -0.9730 -0.0500
vn -0.2259 -0.9728 -0.0505
vn -0.2118 -0.9767 -0.0338
vn -0.2339 -0.9719 0.0248
vn -0.2323 -0.9723 0.0264
vn -0.2491 -0.9684 0.0094
vn -0.1482 -0.9705 -0.1904
vn -0.1413 -0.9736 -0.1791
vn -0.1160 -0.9836 -0.1379
vn 0.1035 -0.0964 -0.9900
vn 0.0913 -0.0813 -0.9925
vn 0.0484 -0.0288 -0.9984
vn 0.0182 0.0265 -0.9995
vn 0.0111 0.0349 -0.9993
vn -0.0208 0.0725 -0.9971
vn -0.1354 0.0920 -0.9865
vn -0.1515 0.1199 -0.9812
vn -0.1691 0.1505 -0.9740
vn -0.0650 -0.0125 -0.9978
vn -0.0945 0.0434 -0.9946
vn -0.1167 0.0859 -0.9894
vn -0.1461 -0.9838 -0.1035
vn -0.1349 -0.9831 -0.1241
vn -0.1532 -0.9841 -0.0902
vn -0.8799 -0.2935 -0.3737
vn -0.8783 -0.2954 -0.3759
vn -0.8474 -0.3307 -0.4154
vn -0.1546 0.2247 -0.9621
vn -0.1596 0.2177 -0.9629
vn -0.1472 0.2352 -0.9607
vn -0.0250 0.2261 -0.9738
vn -0.0244 0.2268 -0.9736
vn -0.0290 0.2218 -0.9747
vn -0.1262 0.3609 -0.9240
vn -0.1357 0.3488 -0.9273
vn -0.1114 0.3796 -0.9184
vn -0.0317 0.3708 -0.9282
vn -0.0318 0.3707 -0.9282
vn -0.0312 0.3714 -0.9280
vn -0.1310 0.9720 -0.1949
vn -0.1202 0.9703 -0.2099
vn -0.1061 0.9675 -0.2294
vn -0.0585 0.9701 -0.2354
vn -0.0558 0.9696 -0.2382
vn -0.0433 0.9669 -0.2515
vn -0.8485 0.4133 -0.3304
vn -0.8485 0.4096 -0.3351
vn -0.8470 0.4503 -0.2826
vn -0.8875 0.2033 -0.4136
vn -0.8873 0.2028 -0.4141
vn -0.8942 0.2302 -0.3840
vn -0.8964 -0.0090 -0.4432
vn -0.8958 -0.0101 -0.4443
vn -0.8928 -0.0162 -0.4501
vn -0.1660 -0.9768 0.1349
vn -0.1692 -0.9768 0.1317
vn -0.2163 -0.9729 0.0813
vn -0.1399 -0.9882 0.0630
vn -0.1470 -0.9878 0.0514
vn -0.1541 -0.9873 0.0397
vn -0.1616 -0.2598 0.9520
vn -0.1401 -0.2949 0.9452
vn -0.1810 -0.2275 0.9568
vn -0.1171 -0.3601 0.9256
vn -0.1117 -0.3657 0.9240
vn -0.1454 -0.3301 0.9327
vn -0.1998 -0.2187 0.9551
vn -0.1922 -0.2297 0.9541
vn -0.2109 -0.2024 0.9563
vn -0.1429 -0.2411 0.9599
vn -0.1433 -0.2406 0.9600
vn -0.1399 -0.2443 0.9596
vn -0.2037 -0.0291 0.9786
vn -0.1954 -0.0163 0.9806
vn -0.1842 0.0010 0.9829
vn -0.1316 0.0134 0.9912
vn -0.1290 0.0164 0.9915
vn -0.1161 0.0313 0.9928
vn -0.1743 0.1624 0.9712
vn -0.1602 0.1828 0.9700
vn -0.1419 0.2090 0.9676
vn -0.1041 0.2223 0.9694
vn -0.1005 0.2262 0.9689
vn -0.0845 0.2439 0.9661
vn -0.1291 0.9697 0.2073
vn -0.1391 0.9713 0.1927
vn -0.1156 0.9671 0.2268
vn -0.0704 0.9689 0.2371
vn -0.0729 0.9694 0.2342
vn -0.0582 0.9663 0.2507
vn -0.8813 0.3446 0.3234
vn -0.8813 0.3450 0.3231
vn -0.8768 0.3939 0.2758
vn -0.9167 0.0929 0.3886
vn -0.9177 0.0910 0.3867
vn -0.9298 0.0667 0.3621
vn -0.9011 -0.1752 0.3968
vn -0.9006 -0.1732 0.3986
vn -0.8984 -0.1639 0.4074
vn -0.8594 -0.3988 0.3200
vn -0.8669 -0.3883 0.3126
vn -0.8255 -0.4423 0.3505
vn -0.9755 -0.1541 0.1567
vn -0.9755 -0.1517 0.1591
vn -0.9754 -0.1440 0.1666
vn -0.8942 -0.4194 0.1567
vn -0.8927 -0.4243 0.1517
vn -0.8973 -0.4082 0.1680
vn -0.8983 -0.4155 -0.1427
vn -0.8977 -0.4175 -0.1410
vn -0.8956 -0.4239 -0.1354
vn -0.9830 -0.0822 -0.1640
vn -0.9835 -0.0803 -0.1620
vn -0.9853 -0.0727 -0.1545
vn 0.3783 0.7933 -0.4770
vn 0.3322 0.8466 -0.4158
vn 0.0725 0.9946 -0.0740
vn 0.4179 0.7665 0.4877
vn 0.3634 0.8312 0.4209
vn 0.5462 0.5328 0.6463
vn 0.1485 0.9864 -0.0709
vn 0.1519 0.9862 -0.0660
vn 0.1435 0.9866 -0.0780
vn 0.1515 0.9859 0.0706
vn 0.1547 0.9858 0.0657
vn 0.1596 0.9855 0.0582
vn 0.8992 0.4232 0.1112
vn 0.8985 0.4243 0.1125
vn 0.8910 0.4357 0.1277
vn 0.8869 0.4481 -0.1121
vn 0.8874 0.4466 -0.1140
vn 0.8911 0.4349 -0.1298
vn 0.9676 0.2091 -0.1412
vn 0.9677 0.2084 -0.1421
vn 0.9678 0.2010 -0.1514
vn 0.9760 0.1671 0.1396
vn 0.9758 0.1675 0.1402
vn 0.9730 0.1756 0.1500
vn -0.2115 -0.8118 -0.5443
vn -0.1871 -0.8374 -0.5136
vn 0.1512 -0.9880 -0.0322
vn -0.3260 -0.7177 0.6154
vn -0.4033 -0.7322 0.5489
vn -0.7763 -0.6303 -0.0055
vn 0.2259 -0.9728 -0.0505
vn 0.2255 -0.9730 -0.0500
vn 0.2118 -0.9767 -0.0338
vn 0.2323 -0.9723 0.0264
vn 0.2339 -0.9719 0.0248
vn 0.2491 -0.9684 0.0094
vn 0.1413 -0.9736 -0.1791
vn 0.1482 -0.9705 -0.1904
vn 0.1160 -0.9836 -0.1379
vn -0.1035 -0.0964 -0.9900
vn -0.0913 -0.0813 -0.9925
vn -0.1500 -0.1535 -0.9767
vn -0.0182 0.0265 -0.9995
vn -0.0111 0.0349 -0.9993
vn -0.0499 -0.0109 -0.9987
vn 0.1354 0.0920 -0.9865
vn 0.1515 0.1199 -0.9812
vn 0.1189 0.0638 -0.9909
vn 0.0650 -0.0125 -0.9978
vn 0.0945 0.0434 -0.9946
vn 0.0426 -0.0545 -0.9976
vn 0.1461 -0.9838 -0.1035
vn 0.1349 -0.9831 -0.1241
vn 0.1266 -0.9822 -0.1391
vn 0.8799 -0.2935 -0.3737
vn 0.8783 -0.2954 -0.3759
vn 0.9095 -0.2539 -0.3293
vn 0.1596 0.2177 -0.9629
vn 0.1546 0.2247 -0.9621
vn 0.1472 0.2352 -0.9607
vn 0.0244 0.2268 -0.9736
vn 0.0250 0.2261 -0.9738
vn 0.0290 0.2218 -0.9747
vn 0.1357 0.3488 -0.9273
vn 0.1262 0.3609 -0.9240
vn 0.1114 0.3796 -0.9184
vn 0.0318 0.3707 -0.9282
vn 0.0317 0.3708 -0.9282
vn 0.0312 0.3714 -0.9280
vn 0.1202 0.9703 -0.2099
vn 0.1310 0.9720 -0.1949
vn 0.1061 0.9675 -0.2294
vn 0.0558 0.9696 -0.2382
vn 0.0585 0.9701 -0.2354
vn 0.0433 0.9669 -0.2515
vn 0.8485 0.4133 -0.3304
vn 0.8485 0.4096 -0.3351
vn 0.8468 0.3718 -0.3804
vn 0.8875 0.2033 -0.4136
vn 0.8873 0.2028 -0.4141
vn 0.8788 0.1746 -0.4441
vn 0.8964 -0.0090 -0.4432
vn 0.8958 -0.0101 -0.4443
vn 0.8994 -0.0026 -0.4371
vn 0.1692 -0.9768 0.1317
vn 0.1660 -0.9768 0.1349
vn 0.2163 -0.9729 0.0813
vn 0.1470 -0.9878 0.0514
vn 0.1399 -0.9882 0.0630
vn 0.1541 -0.9873 0.0397
vn 0.1401 -0.2950 0.9452
vn 0.1616 -0.2598 0.9520
vn 0.1810 -0.2275 0.9568
vn 0.1117 -0.3657 0.9240
vn 0.1171 -0.3601 0.9256
vn 0.1454 -0.3301 0.9327
vn 0.1922 -0.2297 0.9541
vn 0.1998 -0.2187 0.9551
vn 0.2109 -0.2024 0.9563
vn 0.1433 -0.2406 0.9600
vn 0.1429 -0.2411 0.9599
vn 0.1399 -0.2443 0.9596
vn 0.2037 -0.0291 0.9786
vn 0.1954 -0.0163 0.9806
vn 0.2151 -0.0470 0.9755
vn 0.1316 0.0134 0.9912
vn 0.1290 0.0164 0.9915
vn 0.1443 -0.0013 0.9895
vn 0.1743 0.1624 0.9712
vn 0.1602 0.1828 0.9700
vn 0.1915 0.1371 0.9719
vn 0.1041 0.2223 0.9694
vn 0.1005 0.2262 0.9689
vn 0.1187 0.2059 0.9713
vn 0.1291 0.9697 0.2073
vn 0.1391 0.9713 0.1927
vn 0.1527 0.9731 0.1727
vn 0.0704 0.9689 0.2371
vn 0.0729 0.9694 0.2342
vn 0.0840 0.9715 0.2217
vn 0.8813 0.3450 0.3231
vn 0.8813 0.3446 0.3234
vn 0.8768 0.3939 0.2758
vn 0.9167 0.0929 0.3886
vn 0.9177 0.0910 0.3867
vn 0.9047 0.1147 0.4103
vn 0.9011 -0.1752 0.3968
vn 0.9006 -0.1732 0.3986
vn 0.9032 -0.1848 0.3875
vn 0.8669 -0.3883 0.3126
vn 0.8594 -0.3988 0.3200
vn 0.8255 -0.4423 0.3505
vn 0.9755 -0.1517 0.1591
vn 0.9755 -0.1541 0.1567
vn 0.9754 -0.1440 0.1666
vn 0.8942 -0.4194 0.1567
vn 0.8927 -0.4243 0.1517
vn 0.8869 -0.4422 0.1332
vn 0.8977 -0.4175 -0.1410
vn 0.8983 -0.4155 -0.1427
vn 0.8956 -0.4239 -0.1354
vn 0.9835 -0.0803 -0.1620
vn 0.9830 -0.0822 -0.1640
vn 0.9853 -0.0727 -0.1545
vn -0.0725 0.9946 -0.0740
vn -0.0772 0.9943 0.0738
vn -0.1571 0.9858 -0.0585
vn -0.1596 0.9855 0.0582
vn -0.8910 0.4357 0.1277
vn -0.8911 0.4349 -0.1298
vn -0.9678 0.2010 -0.1514
vn -0.9730 0.1756 0.1500
vn -0.1512 -0.9880 -0.0322
vn 0.7763 -0.6303 -0.0055
vn -0.2398 -0.9685 -0.0669
vn -0.2159 -0.9755 0.0430
vn -0.1706 -0.9588 -0.2271
vn 0.1500 -0.1535 -0.9767
vn 0.0499 -0.0109 -0.9987
vn -0.1189 0.0638 -0.9909
vn -0.0426 -0.0545 -0.9976
vn -0.1266 -0.9822 -0.1391
vn -0.9095 -0.2539 -0.3293
vn -0.1674 0.2067 -0.9640
vn -0.0203 0.2311 -0.9727
vn -0.1498 0.3305 -0.9319
vn -0.0323 0.3702 -0.9284
vn -0.1453 0.9738 -0.1749
vn -0.0700 0.9722 -0.2233
vn -0.8468 0.3718 -0.3804
vn -0.8788 0.1746 -0.4441
vn -0.8994 -0.0026 -0.4371
vn -0.1161 -0.9756 0.1865
vn -0.1319 -0.9883 0.0759
vn -0.1208 -0.3255 0.9378
vn -0.0812 -0.3969 0.9143
vn -0.1816 -0.2449 0.9524
vn -0.1464 -0.2373 0.9604
vn -0.2151 -0.0470 0.9755
vn -0.1443 -0.0013 0.9895
vn -0.1915 0.1371 0.9719
vn -0.1187 0.2059 0.9713
vn -0.1527 0.9731 0.1727
vn -0.0840 0.9715 0.2217
vn -0.8817 0.2959 0.3676
vn -0.9047 0.1147 0.4103
vn -0.9032 -0.1848 0.3875
vn -0.8991 -0.3385 0.2775
vn -0.9755 -0.1618 0.1492
vn -0.8869 -0.4422 0.1332
vn -0.9022 -0.4030 -0.1535
vn -0.9811 -0.0897 -0.1714
vn 0.5032 0.5758 -0.6444
vn 0.0772 0.9943 0.0738
vn 0.1571 0.9858 -0.0585
vn 0.1468 0.9861 0.0777
vn 0.9069 0.4105 0.0945
vn 0.8827 0.4601 -0.0955
vn 0.9673 0.2165 -0.1319
vn 0.9788 0.1587 0.1293
vn -0.4171 -0.4795 -0.7721
vn 0.1286 -0.5160 0.8468
vn 0.2398 -0.9685 -0.0669
vn 0.2159 -0.9755 0.0430
vn 0.1706 -0.9588 -0.2271
vn -0.0484 -0.0288 -0.9984
vn 0.0208 0.0725 -0.9971
vn 0.1691 0.1505 -0.9740
vn 0.1167 0.0859 -0.9894
vn 0.1532 -0.9841 -0.0902
vn 0.8474 -0.3307 -0.4154
vn 0.1674 0.2067 -0.9640
vn 0.0203 0.2311 -0.9727
vn 0.1498 0.3305 -0.9319
vn 0.0323 0.3702 -0.9284
vn 0.1453 0.9738 -0.1749
vn 0.0700 0.9722 -0.2233
vn 0.8470 0.4503 -0.2826
vn 0.8942 0.2302 -0.3840
vn 0.8928 -0.0162 -0.4501
vn 0.1161 -0.9756 0.1865
vn 0.1319 -0.9883 0.0759
vn 0.1208 -0.3255 0.9378
vn 0.0812 -0.3969 0.9143
vn 0.1816 -0.2449 0.9524
vn 0.1464 -0.2373 0.9604
vn 0.1842 0.0010 0.9829
vn 0.1161 0.0313 0.9927
vn 0.1419 0.2090 0.9676
vn 0.0845 0.2439 0.9661
vn 0.1156 0.9671 0.2268
vn 0.0582 0.9663 0.2507
vn 0.8817 0.2959 0.3676
vn 0.9298 0.0667 0.3621
vn 0.8984 -0.1639 0.4074
vn 0.8991 -0.3385 0.2775
vn 0.9755 -0.1618 0.1492
vn 0.8973 -0.4082 0.1680
vn 0.9022 -0.4030 -0.1535
vn 0.9811 -0.0897 -0.1714
vt 0.250000 0.562500
vt 0.312500 0.562500
vt 0.312500 0.625000
vt 0.250000 0.625000
vt 0.312500 0.687500
vt 0.250000 0.687500
vt 0.375000 0.562500
vt 0.375000 0.625000
vt 0.375000 0.687500
vt 0.437500 0.625000
vt 0.437500 0.687500
vt 0.437500 0.562500
vt 0.500000 0.562500
vt 0.500000 0.625000
vt 0.000000 0.000000
vt 0.500000 0.687500
vt 0.000000 0.000000
vt 0.625000 0.562500
vt 0.687500 0.562500
vt 0.687500 0.625000
vt 0.625000 0.625000
vt 0.687500 0.687500
vt 0.625000 0.687500
vt 0.750000 0.562500
vt 0.750000 0.625000
vt 0.750000 0.687500
vt 0.625000 0.437500
vt 0.687500 0.500000
vt 0.625000 0.375000
vt 0.750000 0.500000
vt 0.562500 0.375000
vt 0.562500 0.437500
vt 0.500000 0.375000
vt 0.500000 0.437500
vt 0.562500 0.500000
vt 0.500000 0.500000
vt 0.625000 0.500000
vt 0.562500 0.562500
vt 0.437500 0.437500
vt 0.437500 0.500000
vt 0.437500 0.375000
vt 0.375000 0.437500
vt 0.312500 0.500000
vt 0.375000 0.500000
vt 0.375000 0.375000
vt 0.250000 0.500000
vt 0.750000 0.750000
vt 0.625000 0.875000
vt 0.687500 0.750000
vt 0.625000 0.812500
vt 0.625000 0.750000
vt 0.562500 0.750000
vt 0.562500 0.812500
vt 0.562500 0.875000
vt 0.500000 0.750000
vt 0.500000 0.812500
vt 0.500000 0.875000
vt 0.437500 0.750000
vt 0.437500 0.812500
vt 0.437500 0.875000
vt 0.375000 0.750000
vt 0.375000 0.812500
vt 0.312500 0.750000
vt 0.375000 0.875000
vt 0.250000 0.750000
vt 0.000000 0.000000
vt 0.562500 0.687500
vt 0.000000 0.000000
vt 0.312500 0.625000
vt 0.312500 0.562500
vt 0.312500 0.687500
vt 0.375000 0.625000
vt 0.375000 0.562500
vt 0.375000 0.687500
vt 0.437500 0.687500
vt 0.437500 0.625000
vt 0.437500 0.562500
vt 0.500000 0.625000
vt 0.000000 0.000000
vt 0.500000 0.562500
vt 0.500000 0.687500
vt 0.000000 0.000000
vt 0.625000 0.562500
vt 0.625000 0.625000
vt 0.687500 0.625000
vt 0.687500 0.562500
vt 0.625000 0.687500
vt 0.687500 0.687500
vt 0.687500 0.500000
vt 0.625000 0.437500
vt 0.562500 0.437500
vt 0.500000 0.437500
vt 0.500000 0.500000
vt 0.562500 0.500000
vt 0.625000 0.500000
vt 0.562500 0.562500
vt 0.437500 0.437500
vt 0.437500 0.500000
vt 0.375000 0.437500
vt 0.312500 0.500000
vt 0.375000 0.500000
vt 0.687500 0.750000
vt 0.625000 0.812500
vt 0.625000 0.750000
vt 0.562500 0.750000
vt 0.562500 0.812500
vt 0.500000 0.750000
vt 0.500000 0.812500
vt 0.437500 0.750000
vt 0.437500 0.812500
vt 0.375000 0.750000
vt 0.375000 0.812500
vt 0.312500 0.750000
vt 0.562500 0.687500
vt 0.000000 0.000000
vt 0.000000 0.000000
s 1
usemtl dark_green
f 1/1/1 3/3/2 4/4/3
f 3/3/4 6/6/5 4/4/6
f 7/7/7 3/3/8 2/2/9
f 3/3/10 9/9/11 5/5/12
f 8/8/13 11/11/14 9/9/15
f 7/7/16 10/10/17 8/8/18
f 12/12/19 14/14/20 10/10/21
f 10/10/22 15/16/23 11/11/24
f 16/18/25 18/20/26 19/21/27
f 19/21/28 20/22/29 21/23/30
f 22/24/31 18/20/32 17/19/33
f 23/25/34 20/22/35 18/20/36
f 26/30/37 17/19/38 25/28/39
f 27/31/40 25/27/41 28/32/42
f 29/33/43 28/32/44 30/34/45
f 30/34/46 31/35/47 32/36/48
f 28/32/49 33/37/50 31/35/51
f 33/37/52 17/19/53 16/18/54
f 31/35/55 16/18/56 34/38/57
f 30/34/58 36/40/59 35/39/60
f 29/33/61 35/39/62 37/41/63
f 35/39/64 39/44/65 38/42/66
f 37/41/67 38/42/68 40/45/69
f 39/44/70 2/2/71 38/43/72
f 38/43/73 1/1/74 40/46/75
f 39/44/76 12/12/77 7/7/78
f 36/40/79 13/13/80 12/12/81
f 32/36/82 34/38/83 13/13/84
f 24/26/85 42/49/86 20/22/87
f 20/22/88 43/51/89 21/23/90
f 43/51/91 45/53/92 44/52/93
f 42/50/94 46/54/95 45/53/96
f 44/52/97 48/56/98 47/55/99
f 45/53/100 49/57/101 48/56/102
f 50/58/103 48/56/104 51/59/105
f 51/59/106 49/57/107 52/60/108
f 53/61/109 51/59/110 54/62/111
f 54/62/112 52/60/113 55/64/114
f 5/5/115 53/61/116 54/63/117
f 6/6/118 54/63/119 55/65/120
f 11/11/121 53/61/122 9/9/123
f 11/11/124 47/55/125 50/58/126
f 15/16/127 44/52/128 47/55/129
f 21/23/130 44/52/131 56/67/132
f 56/66/133 14/15/134 57/68/135
f 21/23/136 57/68/137 19/21/138
f 57/68/139 16/18/140 19/21/141
f 13/13/142 57/68/143 14/15/144
f 1/1/145 58/69/146 59/70/147
f 6/6/148 58/69/149 4/4/150
f 58/69/151 62/73/152 59/70/153
f 58/69/154 63/74/155 61/72/156
f 61/72/157 64/75/158 65/76/159
f 62/73/160 65/76/161 66/77/162
f 66/77/163 67/78/164 68/80/165
f 65/76/166 69/81/167 67/78/168
f 70/83/169 72/85/170 73/86/171
f 71/84/172 75/88/173 72/85/174
f 72/85/175 22/24/176 73/86/177
f 75/88/178 23/25/179 72/85/180
f 73/86/181 26/30/182 76/89/183
f 27/31/184 76/90/185 26/29/186
f 29/33/187 77/91/188 27/31/189
f 78/92/190 80/94/191 77/91/192
f 77/91/193 81/95/194 76/90/195
f 81/95/196 73/86/197 76/89/198
f 80/94/199 70/83/200 81/95/201
f 84/98/202 78/92/203 83/97/204
f 83/97/205 29/33/206 37/41/207
f 86/101/208 83/97/209 85/99/210
f 85/99/211 37/41/212 40/45/213
f 59/70/214 86/101/215 85/100/216
f 1/1/217 85/100/218 40/46/219
f 86/101/220 66/77/221 84/98/222
f 84/98/223 68/80/224 79/93/225
f 79/93/226 82/96/227 80/94/228
f 87/102/229 24/26/230 75/88/231
f 88/104/232 75/88/233 74/87/234
f 90/106/235 88/104/236 89/105/237
f 46/54/238 87/103/239 90/106/240
f 92/108/241 89/105/242 91/107/243
f 49/57/244 90/106/245 92/108/246
f 93/109/247 92/108/248 91/107/249
f 94/110/250 49/57/251 92/108/252
f 95/111/253 94/110/254 93/109/255
f 96/112/256 52/60/257 94/110/258
f 60/71/259 95/111/260 63/74/261
f 6/6/262 96/113/263 60/71/264
f 95/111/265 64/75/266 63/74/267
f 64/75/268 91/107/269 69/81/270
f 69/81/271 89/105/272 97/114/273
f 89/105/274 74/87/275 97/114/276
f 67/79/277 97/115/278 98/116/279
f 74/87/280 98/116/281 97/114/282
f 70/83/283 98/116/284 71/84/285
f 98/116/286 68/80/287 67/79/288
f 1/1/1 2/2/289 3/3/2
f 3/3/4 5/5/290 6/6/5
f 7/7/7 8/8/291 3/3/8
f 3/3/10 8/8/292 9/9/11
f 8/8/13 10/10/293 11/11/14
f 7/7/16 12/12/294 10/10/17
f 12/12/19 13/13/295 14/14/20
f 10/10/22 14/14/296 15/16/23
f 16/18/25 17/19/297 18/20/26
f 19/21/28 18/20/298 20/22/29
f 22/24/31 23/25/299 18/20/32
f 23/25/34 24/26/300 20/22/35
f 26/30/37 22/24/301 17/19/38
f 27/31/40 26/29/302 25/27/41
f 29/33/43 27/31/303 28/32/44
f 30/34/46 28/32/304 31/35/47
f 28/32/49 25/27/305 33/37/50
f 33/37/52 25/28/306 17/19/53
f 31/35/55 33/37/307 16/18/56
f 30/34/58 32/36/308 36/40/59
f 29/33/61 30/34/309 35/39/62
f 35/39/64 36/40/310 39/44/65
f 37/41/67 35/39/311 38/42/68
f 39/44/70 7/7/312 2/2/71
f 38/43/73 2/2/313 1/1/74
f 39/44/76 36/40/314 12/12/77
f 36/40/79 32/36/315 13/13/80
f 32/36/82 31/35/316 34/38/83
f 24/26/85 41/47/317 42/49/86
f 20/22/88 42/49/318 43/51/89
f 43/51/91 42/50/319 45/53/92
f 42/50/94 41/48/320 46/54/95
f 44/52/97 45/53/321 48/56/98
f 45/53/100 46/54/322 49/57/101
f 50/58/103 47/55/323 48/56/104
f 51/59/106 48/56/324 49/57/107
f 53/61/109 50/58/325 51/59/110
f 54/62/112 51/59/326 52/60/113
f 5/5/115 9/9/327 53/61/116
f 6/6/118 5/5/328 54/63/119
f 11/11/121 50/58/329 53/61/122
f 11/11/124 15/16/330 47/55/125
f 15/16/127 56/67/331 44/52/128
f 21/23/130 43/51/332 44/52/131
f 56/66/133 15/17/333 14/15/134
f 21/23/136 56/67/334 57/68/137
f 57/68/139 34/38/335 16/18/140
f 13/13/142 34/38/336 57/68/143
f 1/1/145 4/4/337 58/69/146
f 6/6/148 60/71/338 58/69/149
f 58/69/151 61/72/339 62/73/152
f 58/69/154 60/71/340 63/74/155
f 61/72/157 63/74/341 64/75/158
f 62/73/160 61/72/342 65/76/161
f 66/77/163 65/76/343 67/78/164
f 65/76/166 64/75/344 69/81/167
f 70/83/169 71/84/345 72/85/170
f 71/84/172 74/87/346 75/88/173
f 72/85/175 23/25/347 22/24/176
f 75/88/178 24/26/348 23/25/179
f 73/86/181 22/24/349 26/30/182
f 27/31/184 77/91/350 76/90/185
f 29/33/187 78/92/351 77/91/188
f 78/92/190 79/93/352 80/94/191
f 77/91/193 80/94/353 81/95/194
f 81/95/196 70/83/354 73/86/197
f 80/94/199 82/96/355 70/83/200
f 84/98/202 79/93/356 78/92/203
f 83/97/205 78/92/357 29/33/206
f 86/101/208 84/98/358 83/97/209
f 85/99/211 83/97/359 37/41/212
f 59/70/214 62/73/360 86/101/215
f 1/1/217 59/70/361 85/100/218
f 86/101/220 62/73/362 66/77/221
f 84/98/223 66/77/363 68/80/224
f 79/93/226 68/80/364 82/96/227
f 87/102/229 41/47/365 24/26/230
f 88/104/232 87/102/366 75/88/233
f 90/106/235 87/103/367 88/104/236
f 46/54/238 41/48/368 87/103/239
f 92/108/241 90/106/369 89/105/242
f 49/57/244 46/54/370 90/106/245
f 93/109/247 94/110/371 92/108/248
f 94/110/250 52/60/372 49/57/251
f 95/111/253 96/112/373 94/110/254
f 96/112/256 55/64/374 52/60/257
f 60/71/259 96/113/375 95/111/260
f 6/6/262 55/65/376 96/113/263
f 95/111/265 93/109/377 64/75/266
f 64/75/268 93/109/378 91/107/269
f 69/81/271 91/107/379 89/105/272
f 89/105/274 88/104/380 74/87/275
f 67/79/277 69/82/381 97/115/278
f 74/87/280 71/84/382 98/116/281
f 70/83/283 82/96/383 98/116/284
f 98/116/286 82/96/384 68/80/287
