# Blender 3.1.0
# www.blender.org
mtllib left_arm_lower.mtl
o left_arm_lower
v -0.257802 0.520505 0.229027
v 0.136831 0.809095 0.670592
v 0.290688 0.475963 0.750809
v -0.103945 0.187373 0.309243
v 0.032259 0.420889 1.017764
v -0.362374 0.132299 0.576198
v -0.536456 0.160862 0.149323
v -0.516232 0.465431 0.495981
v -0.121597 0.754020 0.937549
v 0.310913 0.780530 1.097468
vn 0.6880 0.1466 -0.7107
vn 0.4096 -0.8869 0.2136
vn 0.1002 -0.9892 -0.1071
vn 0.3495 -0.0637 -0.9348
vn -0.4096 0.8869 -0.2136
vn -0.6334 0.5993 -0.4896
vn -0.1002 0.9892 0.1071
vn 0.8827 0.3263 -0.3381
vn -0.3495 0.0637 0.9348
vn -0.6880 -0.1466 0.7107
vn 0.6334 -0.5993 0.4896
vn -0.8827 -0.3263 0.3381
vt 0.000000 0.000000
vt 0.625000 0.500000
vt 0.000000 0.000000
vt 0.625000 0.500000
vt 0.000000 0.000000
vt 0.875000 0.500000
vt 0.000000 0.000000
vt 0.875000 0.500000
vt 0.000000 0.000000
vt 0.875000 0.750000
vt 0.000000 0.000000
vt 0.875000 0.750000
vt 0.750000 0.625000
vt 0.000000 0.000000
vt 0.625000 0.750000
vt 0.625000 0.750000
vt 0.000000 0.000000
vt 0.750000 0.625000
s 1
usemtl plum
f 1/1/1 2/3/1 3/5/1 4/7/1
f 4/7/2 3/5/2 5/9/2 6/11/2
f 6/12/3 7/13/3 4/8/3
f 4/8/4 7/13/4 1/2/4
f 8/15/5 9/16/5 2/4/5 1/2/5
f 1/2/6 7/13/6 8/15/6
f 2/4/7 9/16/7 10/18/7
f 3/6/8 2/4/8 10/18/8
f 9/16/9 5/10/9 10/18/9
f 6/11/10 5/9/10 9/17/10 8/14/10
f 5/10/11 3/6/11 10/18/11
f 8/15/12 7/13/12 6/12/12
