# Blender 3.1.0
# www.blender.org
mtllib left_leg_upper.mtl
o left_leg_upper
v 0.270020 1.529493 -0.840535
v 0.597506 1.913998 -1.251904
v -0.055275 1.796533 -1.365633
v 0.454075 1.535671 -1.719707
v 1.157035 1.067101 -1.476708
v 1.272548 1.371789 -1.099957
v 1.022124 1.077761 -0.785386
v 0.126590 1.151165 -1.308337
v 0.906611 0.773072 -1.162137
v 1.506903 0.808481 -1.045536
vn -0.2400 0.7971 0.5541
vn -0.0323 0.7820 -0.6225
vn 0.5736 0.5420 -0.6142
vn 0.2886 0.5740 0.7663
vn -0.8753 -0.2079 0.4365
vn -0.4280 -0.6340 0.6440
vn 0.5783 0.3134 0.7533
vn -0.0796 -0.7630 0.6415
vn -0.1741 -0.6464 -0.7428
vn 0.1629 -0.7822 -0.6014
vn 0.8208 0.2942 -0.4896
vn -0.6347 -0.2439 -0.7333
vt 0.000000 0.000000
vt 0.625000 0.750000
vt 0.875000 0.750000
vt 0.000000 0.000000
vt 0.750000 0.625000
vt 0.000000 0.000000
vt 0.875000 0.500000
vt 0.000000 0.000000
vt 0.875000 0.500000
vt 0.000000 0.000000
vt 0.875000 0.750000
vt 0.000000 0.000000
vt 0.625000 0.750000
vt 0.000000 0.000000
vt 0.625000 0.500000
vt 0.000000 0.000000
vt 0.625000 0.500000
vt 0.750000 0.625000
s 1
usemtl teal
f 1/2/1 2/3/1 3/5/1
f 2/3/2 4/7/2 3/5/2
f 5/8/3 4/6/3 2/4/3 6/10/3
f 6/10/4 2/4/4 1/1/4 7/12/4
f 8/15/5 1/2/5 3/5/5
f 7/13/6 1/2/6 8/15/6 9/17/6
f 7/13/7 10/18/7 6/11/7
f 9/17/8 10/18/8 7/13/8
f 9/16/9 8/14/9 4/6/9 5/8/9
f 5/9/10 10/18/10 9/17/10
f 6/11/11 10/18/11 5/9/11
f 4/7/12 8/15/12 3/5/12
