# Blender 3.1.0
# www.blender.org
mtllib right_leg_lower.mtl
o right_leg_lower
v 2.563738 1.323996 -1.848200
v 2.509139 1.064668 -2.060321
v 2.934055 1.179996 -2.039078
v 1.632597 1.583569 -1.839863
v 1.560709 1.242124 -2.119154
v 2.579782 1.241066 -2.294159
v 1.665496 1.503780 -2.466012
v 2.634381 1.500394 -2.082038
v 1.737384 1.845225 -2.186722
v 1.335082 1.632532 -2.180757
vn 0.1373 -0.6443 0.7524
vn -0.1615 -0.6042 0.7803
vn -0.1071 -0.7779 -0.6192
vn 0.2461 -0.8081 -0.5352
vn 0.5728 0.4433 -0.6894
vn 0.3061 0.5633 -0.7675
vn 0.5395 0.5857 0.6048
vn 0.2140 0.7476 0.6287
vn -0.3467 0.6365 -0.6889
vn -0.4075 0.7840 0.4683
vn -0.7341 -0.3306 0.5932
vn -0.6733 -0.4781 -0.5640
vt 0.875000 0.750000
vt 0.000000 0.000000
vt 0.000000 0.000000
vt 0.875000 0.500000
vt 0.750000 0.625000
vt 0.000000 0.000000
vt 0.875000 0.750000
vt 0.000000 0.000000
vt 0.875000 0.500000
vt 0.000000 0.000000
vt 0.625000 0.500000
vt 0.000000 0.000000
vt 0.625000 0.500000
vt 0.625000 0.750000
vt 0.000000 0.000000
vt 0.000000 0.000000
vt 0.625000 0.750000
vt 0.750000 0.625000
s 1
usemtl brown
f 1/1/1 2/4/1 3/5/1
f 2/3/2 1/2/2 4/6/2 5/8/2
f 6/10/3 2/3/3 5/8/3 7/12/3
f 2/4/4 6/11/4 3/5/4
f 6/11/5 8/14/5 3/5/5
f 8/14/6 6/11/6 7/13/6 9/17/6
f 8/14/7 1/1/7 3/5/7
f 1/2/8 8/15/8 9/16/8 4/6/8
f 7/13/9 10/18/9 9/17/9
f 9/17/10 10/18/10 4/7/10
f 4/7/11 10/18/11 5/9/11
f 5/9/12 10/18/12 7/13/12
