# Blender 3.1.0
# www.blender.org
mtllib right_foot.mtl
o right_foot
v 1.735219 -1.837978 0.543972
v 1.723205 -1.820181 0.543674
v 1.689834 -1.874871 0.465634
v 1.699451 -1.891614 0.468626
v 1.672057 -1.907644 0.420893
v 1.678387 -1.924795 0.419010
v 1.710490 -1.907847 0.456603
v 1.689510 -1.936841 0.416019
v 1.734950 -1.870649 0.501456
v 1.769481 -1.766737 0.649938
v 1.761263 -1.755612 0.647908
v 1.762454 -1.820333 0.572130
v 1.794796 -1.759167 0.656646
v 1.782670 -1.849077 0.520052
v 1.798764 -1.719998 0.701152
v 1.836211 -1.689209 0.716907
v 1.792185 -1.712415 0.699374
v 1.824410 -1.667341 0.709913
v 1.765028 -1.730560 0.641657
v 1.716967 -1.802238 0.526841
v 1.770398 -1.707591 0.604026
v 1.718148 -1.775797 0.497107
v 1.811256 -1.662929 0.663361
v 1.877271 -1.615464 0.653812
v 1.844217 -1.632824 0.615479
v 1.907079 -1.604916 0.667291
v 1.875875 -1.630192 0.712573
v 1.889325 -1.639555 0.714297
v 1.796807 -1.678708 0.530802
v 1.888321 -1.611965 0.516897
v 1.835525 -1.659279 0.451015
v 1.924706 -1.592698 0.552221
v 1.911024 -1.608783 0.452432
v 1.882277 -1.644367 0.396578
v 1.948091 -1.598020 0.470073
v 1.831714 -1.700161 0.323151
v 1.816648 -1.687098 0.379542
v 1.794541 -1.689235 0.443665
v 1.787294 -1.693357 0.457447
v 1.770659 -1.712578 0.367117
v 1.736772 -1.735996 0.421218
v 1.753603 -1.723842 0.492785
v 1.679182 -1.785197 0.385173
v 1.653287 -1.825737 0.394968
v 1.700399 -1.779800 0.444651
v 1.724028 -1.737182 0.355401
v 1.717448 -1.741884 0.364666
v 1.669273 -1.787766 0.346492
v 1.630362 -1.833038 0.357284
v 1.564488 -1.701927 0.271756
v 1.708837 -1.757327 0.296522
v 1.631642 -1.835006 0.302454
v 1.624128 -1.841333 0.348628
v 1.622525 -1.869246 0.343415
v 1.618013 -1.885587 0.274538
v 1.631289 -1.900290 0.345214
v 1.615059 -1.912850 0.289890
v 1.665636 -1.846436 0.418872
v 1.622508 -1.901974 0.241480
v 1.627511 -1.925464 0.254313
v 1.664619 -1.852329 0.207364
v 1.645002 -1.885601 0.208060
v 1.672220 -1.805727 0.241479
v 1.709387 -1.779813 0.223727
v 1.716815 -1.801052 0.207222
v 1.665138 -1.900736 0.196622
v 1.695772 -1.873046 0.179337
v 1.734200 -1.830601 0.193233
v 1.754837 -1.749892 0.256176
v 1.791074 -1.761277 0.243328
v 1.720460 -1.765085 0.239066
v 1.744840 -1.734379 0.301836
v 1.793046 -1.712659 0.310182
v 1.818001 -1.778587 0.240509
v 1.869382 -1.711905 0.304171
v 1.915373 -1.649073 0.375421
v 1.891248 -1.732830 0.308477
v 1.937493 -1.669818 0.379371
v 1.840171 -1.799297 0.244389
v 1.778923 -1.873031 0.194622
v 1.746968 -1.859569 0.189005
v 1.739235 -1.918257 0.173965
v 1.722619 -1.900557 0.173664
v 1.689330 -1.919145 0.187072
v 1.708485 -1.885044 0.175818
v 1.659234 -1.985545 0.241148
v 1.647114 -1.952426 0.244326
v 1.700477 -1.955363 0.185770
v 1.639742 -1.949564 0.305084
v 1.627893 -1.929377 0.300478
v 1.653760 -1.917669 0.376626
v 1.651972 -1.976771 0.303961
v 1.665578 -1.949766 0.366931
v 1.690976 -1.965623 0.367514
v 1.665692 -1.996119 0.307207
v 1.680322 -2.007692 0.257093
v 1.722818 -1.975567 0.191214
v 1.728847 -1.966902 0.312757
v 1.694774 -1.997241 0.312852
v 1.711409 -2.003159 0.252456
v 1.747334 -1.975387 0.208699
v 1.774931 -1.933175 0.249832
v 1.723838 -1.958562 0.362574
v 1.778080 -1.893359 0.379818
v 1.819124 -1.865621 0.315542
v 1.743749 -1.928148 0.392102
v 1.746165 -1.912929 0.436957
v 1.779851 -1.878715 0.425185
v 1.819907 -1.827751 0.447992
v 1.834011 -1.760869 0.631219
v 1.867394 -1.744917 0.555276
v 1.882875 -1.686235 0.703658
v 1.912005 -1.671255 0.641186
v 1.904295 -1.647512 0.707081
v 1.935968 -1.630850 0.667313
v 1.927153 -1.612761 0.670515
v 1.964220 -1.641725 0.538804
v 1.975989 -1.610534 0.592097
v 1.975256 -1.591611 0.567597
v 1.952064 -1.583056 0.571276
v 1.973608 -1.577526 0.522189
v 1.980258 -1.584071 0.523428
v 1.975683 -1.611006 0.481012
v 1.992547 -1.600310 0.526579
v 1.976375 -1.645454 0.477010
v 1.944004 -1.700135 0.410267
v 1.909572 -1.723450 0.464028
v 1.868369 -1.790320 0.388852
v 1.894433 -1.776140 0.335737
v 1.863031 -1.815580 0.319693
v 1.845724 -1.824967 0.355064
v 1.816940 -1.844695 0.399159
v 1.842588 -1.848235 0.284267
v 1.849697 -1.829042 0.266072
v 1.799185 -1.914619 0.219600
v 1.811068 -1.902674 0.214998
v 1.775979 -1.948709 0.190044
v 1.779695 -1.944172 0.191476
v 1.678806 -1.863464 0.443947
vn -0.7073 -0.3866 0.5918
vn -0.7617 -0.3403 0.5514
vn -0.4028 -0.6551 0.6393
vn -0.1515 -0.7506 0.6431
vn -0.7106 -0.4538 0.5377
vn 0.0200 -0.8242 0.5659
vn 0.0864 -0.8272 0.5553
vn 0.2267 -0.7411 0.6320
vn -0.6320 -0.3602 0.6861
vn -0.8628 0.4262 0.2720
vn -0.9463 0.1089 0.3043
vn -0.9123 0.3675 0.1808
vn -0.8357 0.4948 0.2382
vn -0.5570 0.8108 0.1795
vn -0.5250 0.8284 0.1952
vn -0.1358 0.1630 0.9772
vn -0.3853 0.0342 0.9222
vn -0.7111 0.7030 -0.0062
vn -0.5959 0.7972 -0.0964
vn -0.4549 0.8904 -0.0140
vn -0.5430 0.8173 -0.1928
vn -0.3070 0.9453 -0.1103
vn -0.4806 0.8394 -0.2540
vn -0.5825 0.8087 -0.0821
vn -0.5077 0.8489 -0.1468
vn -0.6155 0.7863 -0.0540
vn -0.6781 0.7348 -0.0126
vn -0.7457 0.6327 0.2086
vn -0.7735 0.6193 0.1350
vn -0.4837 0.8718 0.0780
vn -0.7031 0.6942 0.1542
vn -0.7460 0.6211 0.2405
vn 0.1882 0.7655 0.6153
vn -0.6692 0.7385 -0.0830
vn -0.7648 0.6429 -0.0409
vn -0.6576 -0.1621 0.7358
vn -0.8425 -0.0238 0.5381
vn -0.9772 0.2080 -0.0436
vn -0.9835 -0.0465 0.1751
vn -0.8523 -0.0921 0.5148
vn -0.9734 -0.1399 -0.1812
vn -0.8195 0.4665 -0.3328
vn -0.8336 0.4149 -0.3647
vn -0.5611 0.4959 -0.6627
vn -0.5177 0.1801 -0.8364
vn -0.3043 0.4203 -0.8548
vn -0.3044 0.4203 -0.8548
vn 0.0631 0.6037 -0.7947
vn 0.1053 0.6532 -0.7498
vn -0.6334 0.7380 -0.2327
vn -0.3871 0.8787 -0.2795
vn -0.0111 0.8089 -0.5879
vn -0.3613 0.8982 -0.2506
vn -0.3438 0.9130 -0.2195
vn 0.0877 0.7153 -0.6933
vn -0.1365 0.8088 -0.5721
vn 0.5394 0.4254 -0.7267
vn 0.4965 0.3709 -0.7848
vn 0.3415 0.2927 -0.8932
vn 0.2723 0.3689 -0.8887
vn 0.2495 0.2094 -0.9454
vn -0.0563 0.0868 -0.9946
vn 0.1148 0.2531 -0.9606
vn -0.4020 -0.0966 -0.9105
vn -0.7285 -0.2023 -0.6544
vn -0.6679 -0.3655 -0.6484
vn -0.2503 -0.1113 -0.9618
vn -0.6442 -0.4418 -0.6244
vn -0.8335 -0.5492 -0.0599
vn -0.8295 -0.5284 0.1808
vn -0.8340 -0.4273 0.3490
vn -0.9265 -0.3686 -0.0750
vn -0.8437 -0.4062 0.3511
vn -0.6109 -0.6260 0.4847
vn -0.7589 -0.6505 -0.0299
vn -0.3736 -0.6942 -0.6153
vn -0.3736 -0.6942 -0.6152
vn 0.4730 -0.8547 0.2140
vn -0.1062 -0.9257 0.3629
vn 0.1649 -0.9104 -0.3795
vn 0.7315 -0.6568 0.1833
vn 0.7313 -0.6569 0.1835
vn 0.4770 -0.8067 0.3487
vn 0.7316 -0.6567 0.1831
vn 0.4082 -0.8276 0.3852
vn -0.5244 -0.7249 0.4466
vn 0.1674 -0.8435 0.5104
vn 0.1674 -0.8109 0.5607
vn 0.2541 -0.8183 0.5156
vn 0.2858 -0.7387 0.6104
vn 0.7788 -0.5555 0.2913
vn 0.2868 -0.2504 0.9247
vn 0.6454 0.3101 0.6981
vn 0.7547 -0.6188 0.2183
vn 0.7448 0.4666 0.4771
vn 0.3357 0.8760 0.3465
vn 0.2762 0.7209 0.6356
vn -0.3552 0.9337 0.0447
vn -0.3619 0.9241 -0.1224
vn 0.4534 0.8558 0.2490
vn 0.5558 0.6587 -0.5072
vn 0.5558 0.6587 -0.5071
vn 0.5759 0.6069 -0.5477
vn -0.0993 0.8794 -0.4657
vn 0.8027 0.5829 -0.1266
vn 0.9398 -0.3418 0.0047
vn 0.9319 -0.0457 -0.3597
vn 0.8948 -0.1982 -0.4001
vn 0.8327 -0.5494 -0.0691
vn 0.8579 -0.5136 0.0132
vn 0.7313 -0.6569 0.1834
vn 0.4883 0.0438 -0.8716
vn 0.7104 0.0001 -0.7038
vn 0.1125 -0.3158 -0.9421
vn 0.3393 -0.6991 -0.6294
vn 0.8657 -0.1657 -0.4722
vn 0.9314 -0.3124 0.1867
vn -0.8205 -0.3987 0.4097
vn -0.8728 -0.1330 0.4697
vn -0.9120 -0.0715 0.4040
vn -0.9132 -0.0023 0.4076
vn -0.9143 0.1952 0.3548
vn -0.8655 0.2947 0.4052
vn -0.8654 0.2947 0.4052
vn -0.7813 0.6236 0.0268
vn -0.4725 0.8705 -0.1380
vn -0.6214 -0.4599 -0.6343
vn 0.3482 0.5769 -0.7389
vt 0.000000 0.000000
vt 0.000000 0.000000
vt 0.000000 0.000000
vt 0.000000 0.000000
vt 0.000000 0.000000
vt 0.000000 0.000000
vt 0.000000 0.000000
vt 0.000000 0.000000
vt 0.000000 0.000000
vt 0.000000 0.000000
vt 0.000000 0.000000
vt 0.000000 0.000000
vt 0.000000 0.000000
vt 0.000000 0.000000
vt 0.000000 0.000000
vt 0.000000 0.000000
vt 0.000000 0.000000
vt 0.000000 0.000000
vt 0.000000 0.000000
vt 0.000000 0.000000
vt 0.000000 0.000000
vt 0.000000 0.000000
vt 0.000000 0.000000
vt 0.000000 0.000000
vt 0.000000 0.000000
vt 0.000000 0.000000
vt 0.000000 0.000000
vt 0.000000 0.000000
vt 0.000000 0.000000
vt 0.000000 0.000000
vt 0.000000 0.000000
vt 0.000000 0.000000
vt 0.000000 0.000000
vt 0.000000 0.000000
vt 0.000000 0.000000
vt 0.000000 0.000000
vt 0.000000 0.000000
vt 0.000000 0.000000
vt 0.000000 0.000000
vt 0.000000 0.000000
vt 0.000000 0.000000
vt 0.000000 0.000000
vt 0.000000 0.000000
vt 0.000000 0.000000
vt 0.000000 0.000000
vt 0.000000 0.000000
vt 0.000000 0.000000
vt 0.000000 0.000000
vt 0.000000 0.000000
vt 0.000000 0.000000
vt 0.000000 0.000000
vt 0.000000 0.000000
vt 0.000000 0.000000
vt 0.000000 0.000000
vt 0.000000 0.000000
vt 0.000000 0.000000
vt 0.000000 0.000000
vt 0.000000 0.000000
vt 0.000000 0.000000
vt 0.000000 0.000000
vt 0.000000 0.000000
vt 0.000000 0.000000
vt 0.000000 0.000000
vt 0.000000 0.000000
vt 0.000000 0.000000
vt 0.000000 0.000000
vt 0.000000 0.000000
vt 0.000000 0.000000
vt 0.000000 0.000000
vt 0.000000 0.000000
vt 0.000000 0.000000
vt 0.000000 0.000000
vt 0.000000 0.000000
vt 0.000000 0.000000
vt 0.000000 0.000000
vt 0.000000 0.000000
vt 0.000000 0.000000
vt 0.000000 0.000000
vt 0.000000 0.000000
vt 0.000000 0.000000
vt 0.000000 0.000000
vt 0.000000 0.000000
vt 0.000000 0.000000
vt 0.000000 0.000000
vt 0.000000 0.000000
vt 0.000000 0.000000
vt 0.000000 0.000000
vt 0.000000 0.000000
vt 0.000000 0.000000
vt 0.000000 0.000000
vt 0.000000 0.000000
vt 0.000000 0.000000
vt 0.000000 0.000000
vt 0.000000 0.000000
vt 0.000000 0.000000
vt 0.000000 0.000000
vt 0.000000 0.000000
vt 0.000000 0.000000
vt 0.000000 0.000000
vt 0.000000 0.000000
vt 0.000000 0.000000
vt 0.000000 0.000000
vt 0.000000 0.000000
vt 0.000000 0.000000
vt 0.000000 0.000000
vt 0.000000 0.000000
vt 0.000000 0.000000
vt 0.000000 0.000000
vt 0.000000 0.000000
vt 0.000000 0.000000
vt 0.000000 0.000000
vt 0.000000 0.000000
vt 0.000000 0.000000
vt 0.000000 0.000000
vt 0.000000 0.000000
vt 0.000000 0.000000
vt 0.000000 0.000000
vt 0.000000 0.000000
vt 0.000000 0.000000
vt 0.000000 0.000000
vt 0.000000 0.000000
vt 0.000000 0.000000
vt 0.000000 0.000000
vt 0.000000 0.000000
vt 0.000000 0.000000
vt 0.000000 0.000000
vt 0.000000 0.000000
vt 0.000000 0.000000
vt 0.000000 0.000000
vt 0.000000 0.000000
vt 0.000000 0.000000
vt 0.000000 0.000000
vt 0.000000 0.000000
vt 0.000000 0.000000
vt 0.000000 0.000000
vt 0.000000 0.000000
vt 0.000000 0.000000
vt 0.000000 0.000000
vt 0.000000 0.000000
s 1
usemtl grape
f 1/1/1 2/2/1 3/3/1 4/4/1
f 4/4/2 3/3/2 5/5/2 6/6/2
f 7/7/3 4/4/3 6/6/3 8/8/3
f 9/9/4 1/1/4 4/4/4 7/7/4
f 10/10/5 11/11/5 2/2/5 1/1/5
f 10/10/6 1/1/6 12/12/6 13/13/6
f 14/14/7 12/12/7 1/1/7 9/9/7
f 15/15/8 10/10/8 13/13/8 16/16/8
f 15/15/9 17/17/9 11/11/9 10/10/9
f 18/18/10 19/19/10 11/11/10 17/17/10
f 19/19/11 20/20/11 2/2/11 11/11/11
f 19/19/12 21/21/12 22/22/12 20/20/12
f 18/18/13 23/23/13 21/21/13 19/19/13
f 24/24/14 25/25/14 23/23/14 18/18/14
f 26/26/15 24/24/15 18/18/15 27/27/15
f 28/28/16 27/27/16 18/18/16 16/16/16
f 16/16/17 18/18/17 17/17/17 15/15/17
f 25/25/18 29/29/18 21/21/18 23/23/18
f 30/30/19 31/31/19 29/29/19 25/25/19
f 32/32/20 30/30/20 25/25/20 24/24/20
f 33/33/21 34/34/21 31/31/21 30/30/21
f 35/35/22 33/33/22 30/30/22 32/32/22
f 34/34/23 36/36/23 37/37/23 31/31/23
f 31/31/24 38/38/24 39/39/24 29/29/24
f 37/37/25 40/40/25 38/38/25 31/31/25
f 38/38/26 40/40/26 41/41/26 39/39/26
f 29/29/27 39/39/27 41/41/27 42/42/27
f 41/41/28 43/43/28 44/44/28 45/45/28
f 42/42/29 41/41/29 45/45/29 22/22/29
f 40/40/30 46/46/30 47/47/30 41/41/30
f 41/41/31 47/47/31 48/48/31 43/43/31
f 43/43/32 48/48/32 49/49/32 44/44/32
f 50/50/33 48/48/33 51/51/33
f 46/46/34 51/51/34 48/48/34 47/47/34
f 48/48/35 52/52/35 53/53/35 49/49/35
f 52/52/36 48/48/36 50/50/36
f 44/44/37 49/49/37 53/53/37 54/54/37
f 54/54/38 53/53/38 52/52/38 55/55/38
f 56/56/39 54/54/39 55/55/39 57/57/39
f 58/58/40 44/44/40 54/54/40 56/56/40
f 57/57/41 55/55/41 59/59/41 60/60/41
f 61/61/42 62/62/42 59/59/42 55/55/42
f 55/55/43 52/52/43 63/63/43 61/61/43
f 61/61/44 63/63/44 64/64/44 65/65/44
f 66/66/45 62/62/45 61/61/45 67/67/45
f 67/67/46 61/61/46 65/65/47 68/68/46
f 68/68/48 65/65/48 69/69/48 70/70/48
f 65/65/49 64/64/49 71/71/49 69/69/49
f 71/71/50 64/64/50 63/63/50 51/51/50
f 69/69/51 71/71/51 51/51/51 72/72/51
f 70/70/52 69/69/52 73/73/52 36/36/52
f 73/73/53 69/69/53 72/72/53 40/40/53
f 36/36/54 73/73/54 40/40/54 37/37/54
f 74/74/55 70/70/55 36/36/55 75/75/55
f 75/75/56 36/36/56 34/34/56 76/76/56
f 77/77/57 75/75/57 76/76/57 78/78/57
f 79/79/58 74/74/58 75/75/58 77/77/58
f 80/80/59 81/81/59 74/74/59 79/79/59
f 81/81/60 68/68/60 70/70/60 74/74/60
f 82/82/61 83/83/61 81/81/61 80/80/61
f 81/81/62 83/83/62 84/84/62 85/85/62
f 85/85/63 67/67/63 68/68/63 81/81/63
f 84/84/64 66/66/64 67/67/64 85/85/64
f 86/86/65 87/87/65 84/84/65 88/88/65
f 87/87/66 60/60/66 66/66/66 84/84/66
f 88/88/67 84/84/67 83/83/67 82/82/67
f 60/60/68 59/59/68 62/62/68 66/66/68
f 89/89/69 90/90/69 60/60/69 87/87/69
f 57/57/70 60/60/70 90/90/70 56/56/70
f 91/91/71 56/56/71 90/90/71 89/89/71
f 92/92/72 89/89/72 87/87/72 86/86/72
f 93/93/73 91/91/73 89/89/73 92/92/73
f 94/94/74 93/93/74 92/92/74 95/95/74
f 95/95/75 92/92/75 86/86/75 96/96/75
f 96/96/76 86/86/77 88/88/76 97/97/77
f 98/98/78 99/99/78 96/96/78 100/100/78
f 94/94/79 95/95/79 96/96/79 99/99/79
f 100/100/80 96/96/80 97/97/80 101/101/80
f 98/98/81 100/100/82 101/101/82 102/102/82
f 103/103/83 94/94/83 99/99/83 98/98/83
f 104/104/82 98/98/81 102/102/82 105/105/84
f 106/106/82 103/103/82 98/98/81 104/104/82
f 106/106/85 107/107/85 94/94/85 103/103/85
f 8/8/86 6/6/86 93/93/86 94/94/86
f 7/7/87 8/8/87 94/94/87 107/107/87
f 9/9/88 7/7/88 107/107/88 14/14/88
f 104/104/82 108/108/82 107/107/82 106/106/82
f 14/14/82 107/107/82 108/108/82 109/109/82
f 110/110/82 14/14/82 109/109/82 111/111/82
f 110/110/89 13/13/89 12/12/89 14/14/89
f 112/112/82 110/110/82 111/111/82 113/113/82
f 112/112/90 16/16/90 13/13/90 110/110/90
f 114/114/91 112/112/91 113/113/91 115/115/91
f 114/114/92 28/28/92 16/16/92 112/112/92
f 115/115/93 116/116/93 28/28/93 114/114/93
f 115/115/94 113/113/94 117/117/94 118/118/94
f 118/118/95 119/119/95 116/116/95 115/115/95
f 119/119/96 120/120/96 26/26/96 116/116/96
f 116/116/97 26/26/97 27/27/97 28/28/97
f 120/120/98 32/32/98 24/24/98 26/26/98
f 121/121/99 35/35/99 32/32/99 120/120/99
f 122/122/100 121/121/100 120/120/100 119/119/100
f 123/123/101 35/35/101 121/121/101 122/122/102
f 78/78/103 76/76/103 35/35/103 123/123/103
f 76/76/104 34/34/104 33/33/104 35/35/104
f 119/119/105 124/124/105 123/123/105 122/122/105
f 125/125/106 123/123/106 124/124/106 117/117/106
f 126/126/107 78/78/107 123/123/107 125/125/107
f 117/117/82 127/127/82 126/126/81 125/125/81
f 127/127/82 128/128/82 129/129/82 126/126/81
f 129/129/108 77/77/108 78/78/108 126/126/108
f 113/113/82 111/111/82 127/127/82 117/117/82
f 111/111/82 109/109/82 128/128/82 127/127/82
f 130/130/82 129/129/82 128/128/82 131/131/82
f 131/131/82 128/128/82 109/109/82 132/132/82
f 132/132/82 104/104/82 105/105/84 131/131/82
f 131/131/82 105/105/84 133/133/82 130/130/82
f 132/132/82 109/109/82 108/108/82 104/104/82
f 133/133/109 134/134/109 129/129/109 130/130/109
f 105/105/84 102/102/82 135/135/82 133/133/82
f 135/135/110 136/136/110 134/134/110 133/133/110
f 137/137/82 138/138/111 136/136/111 135/135/82
f 102/102/82 101/101/82 137/137/82 135/135/82
f 138/138/112 82/82/112 80/80/112 136/136/112
f 136/136/113 80/80/113 79/79/113 134/134/113
f 97/97/114 88/88/114 82/82/114 138/138/114
f 101/101/115 97/97/115 138/138/115 137/137/115
f 134/134/116 79/79/116 77/77/116 129/129/116
f 117/117/117 124/124/117 119/119/117 118/118/117
f 6/6/118 5/5/118 91/91/118 93/93/118
f 139/139/119 58/58/119 56/56/119 91/91/119
f 139/139/120 91/91/120 5/5/120 3/3/120
f 20/20/121 139/139/121 3/3/121 2/2/121
f 20/20/122 22/22/122 58/58/122 139/139/122
f 22/22/123 45/45/123 44/44/123 58/58/124
f 29/29/125 42/42/125 22/22/125 21/21/125
f 72/72/126 51/51/126 46/46/126 40/40/126
f 63/63/127 52/52/127 50/50/127
f 51/51/128 63/63/128 50/50/128
