# Blender 3.1.0
# www.blender.org
mtllib right_leg_upper.mtl
o right_leg_upper
v 1.085512 -1.762830 -0.329708
v 0.596193 -1.840292 -0.277871
v 0.372112 -0.999007 -0.399482
v 1.012003 -0.897710 -0.467270
v 0.945483 -2.270442 -0.016782
v 0.640959 -1.792625 0.215935
v 0.427697 -0.939821 0.213667
v 1.130278 -1.715163 0.164098
v 1.067588 -0.838523 0.145879
v 0.637602 -0.426051 -0.166906
vn -0.0784 -0.1630 -0.9835
vn -0.0074 -0.5233 -0.8521
vn -0.8066 -0.5768 0.1288
vn -0.9642 -0.2408 0.1107
vn 0.1535 -0.3519 0.9234
vn 0.9527 -0.2983 -0.0576
vn 0.1009 0.0279 0.9945
vn 0.9929 0.0690 -0.0967
vn -0.0097 0.5978 0.8016
vn 0.7342 0.6662 -0.1309
vn -0.1627 0.4349 -0.8857
vn -0.9131 0.4054 0.0436
vt 0.000000 0.000000
vt 0.625000 0.500000
vt 0.875000 0.500000
vt 0.000000 0.000000
vt 0.000000 0.000000
vt 0.875000 0.500000
vt 0.000000 0.000000
vt 0.625000 0.500000
vt 0.750000 0.625000
vt 0.875000 0.750000
vt 0.000000 0.000000
vt 0.000000 0.000000
vt 0.875000 0.750000
vt 0.000000 0.000000
vt 0.625000 0.750000
vt 0.000000 0.000000
vt 0.625000 0.750000
vt 0.750000 0.625000
s 1
usemtl sky
f 1/1/1 2/4/1 3/5/1 4/7/1
f 2/3/2 1/2/2 5/9/2
f 6/10/3 2/3/3 5/9/3
f 2/4/4 6/11/4 7/12/4 3/5/4
f 8/15/5 6/10/5 5/9/5
f 1/2/6 8/15/6 5/9/6
f 6/11/7 8/14/7 9/16/7 7/12/7
f 8/15/8 1/2/8 4/8/8 9/17/8
f 9/17/9 10/18/9 7/13/9
f 4/8/10 10/18/10 9/17/10
f 3/6/11 10/18/11 4/8/11
f 7/13/12 10/18/12 3/6/12
