# Blender 3.1.0
# www.blender.org
mtllib right_arm_upper.mtl
o right_arm_upper
v -0.260562 -0.599715 0.154118
v -0.518990 -0.654789 0.421073
v -0.693073 -0.626226 -0.005802
v 0.134071 -0.311126 0.595684
v -0.124357 -0.366199 0.862639
v -0.672848 -0.321658 0.340856
v -0.278215 -0.033068 0.782422
v -0.414419 -0.266584 0.073901
v -0.019786 0.022006 0.515467
v 0.154296 -0.006557 0.942342
vn 0.1002 -0.9892 -0.1071
vn 0.4096 -0.8869 0.2136
vn -0.6880 -0.1466 0.7107
vn -0.8827 -0.3263 0.3382
vn 0.3495 -0.0637 -0.9348
vn -0.6334 0.5993 -0.4896
vn 0.6880 0.1466 -0.7107
vn -0.4096 0.8869 -0.2136
vn 0.8827 0.3263 -0.3382
vn -0.1002 0.9892 0.1071
vn -0.3495 0.0637 0.9348
vn 0.6334 -0.5993 0.4896
vt 0.625000 0.500000
vt 0.000000 0.000000
vt 0.000000 0.000000
vt 0.625000 0.750000
vt 0.750000 0.625000
vt 0.000000 0.000000
vt 0.625000 0.500000
vt 0.000000 0.000000
vt 0.625000 0.750000
vt 0.875000 0.750000
vt 0.000000 0.000000
vt 0.000000 0.000000
vt 0.875000 0.750000
vt 0.875000 0.500000
vt 0.000000 0.000000
vt 0.000000 0.000000
vt 0.875000 0.500000
vt 0.750000 0.625000
s 1
usemtl rust
f 1/1/1 2/4/1 3/5/1
f 2/4/2 1/1/2 4/7/2 5/9/2
f 6/11/3 2/3/3 5/8/3 7/12/3
f 2/4/4 6/10/4 3/5/4
f 8/14/5 1/1/5 3/5/5
f 6/10/6 8/14/6 3/5/6
f 1/2/7 8/15/7 9/16/7 4/6/7
f 8/15/8 6/11/8 7/12/8 9/16/8
f 9/17/9 10/18/9 4/7/9
f 7/13/10 10/18/10 9/17/10
f 5/9/11 10/18/11 7/13/11
f 4/7/12 10/18/12 5/9/12
