# Blender 3.1.0
# www.blender.org
mtllib torso_lower.mtl
o torso_lower
v 0.241526 1.756672 -1.051439
v 0.130829 1.613732 -0.896388
v 0.120951 1.742198 -0.718142
v 0.244852 1.919143 -0.896930
v 0.153145 1.880988 -0.539765
v 0.073599 2.212956 -0.758634
v 0.448942 2.228290 -0.911330
v 0.402131 2.072336 -1.071345
v 0.370079 1.894639 -1.196921
v 0.603272 2.244169 -1.256078
v 0.555101 2.078936 -1.368178
v 0.652406 2.386905 -1.111316
v 0.353913 2.206815 -0.541221
v 0.507888 2.351292 -0.726414
v 0.700209 2.499861 -0.939912
v 0.878750 2.321567 -1.164068
v 0.817245 2.159142 -1.318024
v 0.924803 2.442847 -0.967219
v 1.140687 2.324855 -0.973025
v 1.102152 2.198072 -1.181580
v 1.028332 2.031488 -1.337299
v 1.243996 2.055542 -1.168097
v 1.170622 1.884387 -1.320481
v 1.293307 2.178480 -0.940374
v 1.588853 1.622525 -0.883047
v 1.275230 1.710911 -1.256393
v 1.395929 2.015313 -0.872634
v 0.927090 1.839311 -1.429341
v 1.073861 1.706238 -1.410497
v 1.192085 1.559584 -1.358651
v 0.914764 1.457713 -1.218569
v 1.052057 1.327061 -1.143982
v 0.739564 1.598780 -1.256604
v 1.125809 1.441497 -1.015967
v 0.801726 1.296532 -1.035565
v 0.979188 1.208626 -0.976456
v 1.061589 1.302135 -0.823454
v 0.838552 1.076380 -0.875788
v 0.888390 1.162737 -0.717732
v 0.645754 1.141863 -0.880654
v 0.594012 1.425850 -1.080049
v 0.451241 1.260253 -0.894426
v 0.399799 1.591649 -1.079687
v 0.270451 1.429792 -0.900786
v 0.545502 1.752734 -1.246290
v 0.744836 1.967587 -1.420399
v 0.130946 1.246805 -0.649262
v 0.004194 1.432105 -0.676158
v 0.291526 1.093082 -0.630980
v 0.001127 1.537178 -0.499694
v 0.118067 1.338221 -0.439752
v 0.149838 1.465736 -0.248447
v 0.032629 1.659211 -0.332783
v 0.285974 1.159871 -0.404788
v 0.322487 1.282651 -0.202205
v 0.225625 1.621927 -0.088947
v 0.098064 1.792870 -0.183528
v 0.398723 1.453700 -0.041008
v 0.454323 1.043366 -0.420703
v 0.485785 1.165311 -0.215672
v 0.581803 1.343088 -0.046620
v 1.094322 1.041887 -0.261844
v 0.649708 0.976473 -0.470645
v 0.772406 1.283222 -0.089397
v 0.455053 0.979681 -0.633181
v 0.633476 0.903710 -0.656956
v 0.951406 1.314824 -0.512761
v 1.133141 1.444358 -0.633558
v 1.016900 1.490007 -0.302392
v 1.183392 1.607785 -0.440799
v 1.196858 1.603015 -0.821085
v 1.258852 1.774086 -0.606319
v 1.199653 1.767214 -0.278836
v 1.064284 1.642683 -0.148594
v 1.289325 1.906908 -0.431280
v 0.890386 1.754610 -0.104171
v 1.044253 1.935377 -0.245366
v 1.165111 2.077170 -0.449266
v 1.413594 2.106243 -0.667490
v 1.299059 2.256249 -0.711155
v 0.985637 2.247846 -0.454027
v 0.851169 2.104152 -0.241322
v 1.141598 2.405118 -0.729715
v 0.952914 2.516435 -0.741743
v 0.778881 2.368320 -0.485113
v 0.641999 2.230501 -0.289741
v 0.697313 1.909320 -0.091850
v 0.503831 2.045377 -0.139609
v 0.335423 2.153389 -0.229097
v 0.451350 2.310127 -0.367087
v 0.574673 2.434297 -0.529629
v 0.226708 2.021154 -0.373211
v 0.744494 2.578499 -0.750463
v 0.193587 1.931669 -0.058443
v 0.339025 1.795654 0.029394
v 0.506034 1.658890 0.068646
v 0.684040 1.534143 0.061399
v 0.857436 1.453246 0.031127
vn -0.8915 0.3323 -0.3081
vn -0.9586 -0.1187 -0.2588
vn -0.5679 0.3400 -0.7496
vn -0.8336 0.4001 -0.3807
vn -0.7927 0.4615 -0.3983
vn -0.7618 0.5661 -0.3150
vn -0.3019 0.9531 -0.0222
vn -0.7282 0.6513 -0.2132
vn 0.0474 0.6899 -0.7223
vn 0.1246 0.8225 -0.5549
vn 0.3836 0.7499 -0.5389
vn 0.2798 0.5945 -0.7539
vn 0.5242 0.4378 -0.7304
vn 0.6544 0.5919 -0.4706
vn 0.7679 0.2234 -0.6004
vn 0.8344 0.4050 -0.3739
vn 0.3556 0.2523 -0.8999
vn 0.6005 0.1324 -0.7886
vn -0.2034 -0.5552 -0.8065
vn -0.2436 -0.4629 -0.8523
vn 0.8636 -0.5041 -0.0067
vn -0.2057 -0.7089 -0.6746
vn 0.8392 -0.5397 -0.0669
vn 0.6928 -0.7116 0.1169
vn -0.1093 -0.5958 -0.7957
vn -0.2496 -0.5865 -0.7705
vn -0.2646 -0.6041 -0.7517
vn -0.4268 -0.4909 -0.7595
vn -0.4020 -0.4618 -0.7907
vn -0.3288 -0.3794 -0.8648
vn -0.4442 -0.3021 -0.8435
vn -0.5080 -0.3537 -0.7854
vn 0.0071 0.5134 -0.8581
vn 0.1809 0.3781 -0.9079
vn -0.5400 -0.3912 -0.7452
vn -0.5759 -0.4568 -0.6780
vn -0.4866 -0.5646 -0.6667
vn -0.9188 0.3135 -0.2399
vn -0.8461 -0.4883 0.2136
vn -0.8447 -0.3576 0.3983
vn -0.9127 0.3889 -0.1254
vn -0.7115 -0.6696 0.2130
vn -0.6932 -0.5479 0.4683
vn -0.7789 -0.2384 0.5801
vn -0.5976 -0.4022 0.6937
vn -0.4644 -0.7230 0.5115
vn -0.3265 -0.5598 0.7616
vn -0.1341 -0.8356 0.5326
vn -0.0652 -0.6512 0.7561
vn -0.5454 -0.8055 0.2318
vn -0.2824 -0.9042 0.3204
vn 0.7220 -0.6704 0.1712
vn 0.6366 -0.6241 -0.4530
vn -0.2832 -0.6488 -0.7063
vn 0.6851 -0.6763 0.2706
vn 0.8989 0.1910 0.3943
vn 0.6979 -0.6343 0.3324
vn 0.9120 -0.4099 -0.0144
vn 0.9327 -0.3587 0.0375
vn 0.7597 -0.5325 0.3733
vn 0.9287 -0.3340 0.1609
vn 0.4585 0.3071 0.8340
vn 0.5740 0.4427 0.6888
vn 0.9081 -0.4008 0.1209
vn 0.5274 0.5222 0.6702
vn 0.4951 0.5448 0.6768
vn 0.5069 0.5809 0.6368
vn 0.3459 0.7052 0.6190
vn 0.2830 0.6911 0.6650
vn 0.3512 0.3759 0.8575
vn 0.1520 0.5373 0.8296
vn -0.0132 0.6501 0.7597
vn 0.0900 0.7713 0.6300
vn -0.7888 0.6119 0.0580
vn -0.7164 0.6969 -0.0329
vn -0.6945 0.7127 -0.0986
vn 0.1658 0.7834 0.5990
vn 0.2315 0.8996 -0.3704
vn 0.4737 0.8276 -0.3010
vn -0.7291 0.4515 0.5143
vn -0.8820 0.4707 -0.0199
vn -0.8290 0.5547 0.0705
vn -0.6546 -0.1409 0.7427
vn -0.0026 0.5857 0.8106
vn -0.4481 -0.2547 0.8570
vn 0.1455 0.4700 0.8706
vn -0.2157 -0.3800 0.8995
vn 0.3102 0.3501 0.8839
vn -0.0313 -0.5229 0.8518
vn 0.3764 0.3449 0.8599
vn 0.7637 -0.5704 0.3023
vn 0.6901 0.6834 -0.2383
vn 0.8358 0.4951 -0.2373
vn 0.5815 -0.1816 0.7930
vn 0.3976 -0.9048 -0.1527
vn -0.3869 -0.6312 -0.6722
vt 0.250000 0.500000
vt 0.375000 0.375000
vt 0.375000 0.437500
vt 0.312500 0.500000
vt 0.312500 0.562500
vt 0.250000 0.562500
vt 0.312500 0.625000
vt 0.250000 0.625000
vt 0.312500 0.625000
vt 0.312500 0.562500
vt 0.312500 0.500000
vt 0.375000 0.437500
vt 0.375000 0.562500
vt 0.375000 0.500000
vt 0.375000 0.625000
vt 0.250000 0.687500
vt 0.312500 0.687500
vt 0.375000 0.687500
vt 0.437500 0.625000
vt 0.437500 0.562500
vt 0.437500 0.687500
vt 0.000000 0.000000
vt 0.500000 0.687500
vt 0.500000 0.625000
vt 0.000000 0.000000
vt 0.500000 0.562500
vt 0.000000 0.000000
vt 0.562500 0.562500
vt 0.000000 0.000000
vt 0.562500 0.687500
vt 0.625000 0.625000
vt 0.625000 0.562500
vt 0.625000 0.687500
vt 0.500000 0.500000
vt 0.562500 0.500000
vt 0.625000 0.500000
vt 0.562500 0.437500
vt 0.625000 0.437500
vt 0.687500 0.500000
vt 0.500000 0.437500
vt 0.687500 0.562500
vt 0.562500 0.375000
vt 0.750000 0.500000
vt 0.625000 0.375000
vt 0.750000 0.562500
vt 0.687500 0.500000
vt 0.625000 0.437500
vt 0.687500 0.562500
vt 0.562500 0.437500
vt 0.500000 0.375000
vt 0.500000 0.437500
vt 0.437500 0.375000
vt 0.437500 0.437500
vt 0.437500 0.437500
vt 0.437500 0.500000
vt 0.437500 0.500000
vt 0.375000 0.500000
vt 0.500000 0.500000
vt 0.375000 0.562500
vt 0.437500 0.562500
vt 0.437500 0.625000
vt 0.375000 0.625000
vt 0.500000 0.562500
vt 0.500000 0.625000
vt 0.000000 0.000000
vt 0.437500 0.687500
vt 0.375000 0.687500
vt 0.000000 0.000000
vt 0.500000 0.687500
vt 0.562500 0.562500
vt 0.000000 0.000000
vt 0.000000 0.000000
vt 0.562500 0.687500
vt 0.625000 0.625000
vt 0.625000 0.562500
vt 0.625000 0.687500
vt 0.562500 0.500000
vt 0.625000 0.500000
vt 0.687500 0.625000
vt 0.750000 0.625000
vt 0.687500 0.687500
vt 0.750000 0.687500
vt 0.687500 0.625000
vt 0.687500 0.687500
vt 0.750000 0.750000
vt 0.625000 0.875000
vt 0.625000 0.812500
vt 0.687500 0.750000
vt 0.687500 0.750000
vt 0.625000 0.812500
vt 0.562500 0.812500
vt 0.562500 0.875000
vt 0.562500 0.812500
vt 0.625000 0.750000
vt 0.562500 0.750000
vt 0.500000 0.812500
vt 0.500000 0.875000
vt 0.500000 0.750000
vt 0.437500 0.750000
vt 0.437500 0.812500
vt 0.437500 0.875000
vt 0.500000 0.812500
vt 0.437500 0.812500
vt 0.312500 0.750000
vt 0.375000 0.812500
vt 0.375000 0.875000
vt 0.250000 0.750000
vt 0.312500 0.750000
vt 0.375000 0.812500
vt 0.312500 0.687500
vt 0.375000 0.750000
vt 0.375000 0.750000
vt 0.437500 0.750000
vt 0.500000 0.750000
vt 0.562500 0.750000
vt 0.625000 0.750000
s 1
usemtl dark_green
f 1/1/1 2/4/1 3/5/1 4/6/1
f 4/6/2 3/5/2 5/7/2 6/8/2
f 4/6/3 6/8/3 7/9/3 8/10/3
f 1/1/4 4/6/4 8/10/4 9/11/4
f 9/11/5 8/10/5 10/13/5 11/14/5
f 8/10/6 7/9/6 12/15/6 10/13/6
f 6/8/7 13/16/7 14/17/7 7/9/7
f 7/9/8 14/17/8 15/18/8 12/15/8
f 10/13/9 12/15/9 16/19/9 17/20/9
f 12/15/10 15/18/10 18/21/10 16/19/10
f 16/19/11 18/21/11 19/23/11 20/24/11
f 17/20/12 16/19/12 20/24/12 21/26/12
f 20/25/13 22/27/13 23/28/13 21/26/13
f 22/27/14 20/25/14 19/22/14 24/29/14
f 25/31/15 26/32/15 23/28/15 22/27/15
f 27/33/16 25/31/16 22/27/16 24/30/16
f 28/34/17 21/26/17 23/28/17 29/35/17
f 29/35/18 23/28/18 26/32/18 30/36/18
f 31/37/19 29/35/19 30/36/19 32/38/19
f 33/40/20 28/34/20 29/35/20 31/37/20
f 30/36/21 26/32/21 34/41/21 32/39/21
f 35/42/22 31/37/22 32/38/22 36/44/22
f 32/39/23 34/41/23 37/45/23 36/43/23
f 38/46/24 36/43/24 37/45/24 39/48/24
f 35/42/25 36/44/25 38/47/25 40/49/25
f 41/50/26 35/42/26 40/49/26 42/51/26
f 41/50/27 33/40/27 31/37/27 35/42/27
f 43/52/28 41/50/28 42/51/28 44/53/28
f 43/52/29 45/54/29 33/40/29 41/50/29
f 45/54/30 46/55/30 28/34/30 33/40/30
f 9/12/31 11/14/31 46/55/31 45/54/31
f 1/2/32 9/12/32 45/54/32 43/52/32
f 11/14/33 10/13/33 17/20/33 46/55/33
f 46/55/34 17/20/34 21/26/34 28/34/34
f 1/2/35 43/52/35 44/53/35 2/3/35
f 2/3/36 44/53/36 47/56/36 48/57/36
f 44/53/37 42/51/37 49/58/37 47/56/37
f 2/4/38 48/57/38 50/59/38 3/5/38
f 48/57/39 47/56/39 51/60/39 50/59/39
f 50/59/40 51/60/40 52/61/40 53/62/40
f 3/5/41 50/59/41 53/62/41 5/7/41
f 47/56/42 49/58/42 54/63/42 51/60/42
f 51/60/43 54/63/43 55/64/43 52/61/43
f 53/62/44 52/61/44 56/66/44 57/67/44
f 52/61/45 55/64/45 58/69/45 56/66/45
f 55/65/46 54/63/46 59/70/46 60/71/46
f 60/71/47 61/72/47 58/68/47 55/65/47
f 62/74/48 60/71/48 59/70/48 63/75/48
f 64/76/49 61/73/49 60/71/49 62/74/49
f 49/58/50 65/77/50 59/70/50 54/63/50
f 65/77/51 66/78/51 63/75/51 59/70/51
f 66/78/52 38/46/52 39/48/52 63/75/52
f 63/75/53 39/48/53 67/79/53 62/74/53
f 40/49/54 38/47/54 66/78/54 65/77/54
f 39/48/55 37/45/55 68/80/55 67/79/55
f 62/74/56 67/79/56 69/81/56 64/76/56
f 67/79/57 68/80/57 70/82/57 69/81/57
f 34/41/58 71/83/58 68/80/58 37/45/58
f 71/83/59 72/84/59 70/82/59 68/80/59
f 69/81/60 70/82/60 73/85/60 74/88/60
f 72/84/61 75/89/61 73/85/61 70/82/61
f 76/91/62 74/87/62 73/86/62 77/92/62
f 78/93/63 77/92/63 73/86/63 75/90/63
f 27/33/64 79/94/64 75/89/64 72/84/64
f 80/95/65 78/93/65 75/90/65 79/94/65
f 81/96/66 82/97/66 77/92/66 78/93/66
f 83/98/67 81/96/67 78/93/67 80/95/67
f 84/99/68 85/100/68 81/96/68 83/98/68
f 85/100/69 86/101/69 82/97/69 81/96/69
f 87/102/70 76/91/70 77/92/70 82/97/70
f 88/103/71 87/102/71 82/97/71 86/101/71
f 89/105/72 88/103/72 86/101/72 90/106/72
f 91/109/73 90/106/73 86/101/73 85/100/73
f 13/16/74 92/110/74 89/104/74 90/107/74
f 13/16/75 90/107/75 91/108/75 14/17/75
f 14/17/76 91/108/76 93/111/76 15/18/76
f 93/111/77 91/109/77 85/100/77 84/99/77
f 15/18/78 93/111/78 84/99/78 18/21/78
f 18/21/79 84/99/79 83/98/79 19/23/79
f 6/8/80 5/7/80 92/110/80 13/16/80
f 5/7/81 53/62/81 57/67/81 92/110/81
f 92/110/82 57/67/82 94/112/82 89/104/82
f 57/67/83 56/66/83 95/113/83 94/112/83
f 94/112/84 95/113/84 88/103/84 89/105/84
f 56/66/85 58/69/85 96/114/85 95/113/85
f 95/113/86 96/114/86 87/102/86 88/103/86
f 58/69/87 61/73/87 97/115/87 96/114/87
f 96/114/88 97/115/88 76/91/88 87/102/88
f 61/73/89 64/76/89 98/116/89 97/115/89
f 97/115/90 98/116/90 74/87/90 76/91/90
f 64/76/91 69/81/91 74/88/91 98/116/91
f 19/23/92 83/98/92 80/95/92 24/30/92
f 24/30/93 80/95/93 79/94/93 27/33/93
f 25/31/94 27/33/94 72/84/94 71/83/94
f 26/32/95 25/31/95 71/83/95 34/41/95
f 42/51/96 40/49/96 65/77/96 49/58/96
