# Blender v3.0.0 OBJ File: 'Thirty2D Attach Point Sprite Scramble Location.blend'
# www.blender.org
mtllib left_arm_upper.mtl
o left_arm_upper
v -0.249492 0.437585 0.249492
v -0.249492 0.437585 -0.249492
v 0.249492 0.437586 0.249492
v 0.249492 0.437585 -0.249492
v 0.000000 0.939597 -0.000000
v -0.249492 -0.437586 0.249492
v -0.249492 -0.437586 -0.249492
v 0.249492 -0.437585 0.249492
v 0.249492 -0.437586 -0.249492
v 0.000000 -0.939598 -0.000000
vt 0.625000 0.750000
vt 0.625000 0.500000
vt 0.625000 0.500000
vt 0.625000 0.750000
vt 0.750000 0.625000
vt 0.875000 0.750000
vt 0.875000 0.500000
vt 0.000000 0.000000
vt 0.000000 0.000000
vt 0.000000 0.000000
vt 0.000000 0.000000
vt 0.750000 0.625000
vt 0.875000 0.750000
vt 0.875000 0.500000
vt 0.000000 0.000000
vt 0.000000 0.000000
vt 0.000000 0.000000
vt 0.000000 0.000000
vn 1.0000 0.0000 0.0000
vn 0.8955 0.4451 -0.0000
vn -0.8955 0.4451 -0.0000
vn -0.0000 0.4451 0.8955
vn 0.0000 0.4451 -0.8955
vn -0.0000 0.0000 1.0000
vn 0.8955 -0.4451 0.0000
vn -0.8955 -0.4451 -0.0000
vn 0.0000 -0.4451 0.8955
vn -0.0000 -0.4451 -0.8955
vn -1.0000 -0.0000 -0.0000
vn 0.0000 -0.0000 -1.0000
usemtl purple
s off
f 8/1/1 9/2/1 4/3/1 3/4/1
f 4/3/2 5/5/2 3/4/2
f 1/6/3 5/5/3 2/7/3
f 3/4/4 5/5/4 1/6/4
f 2/7/5 5/5/5 4/3/5
f 6/8/6 8/9/6 3/10/6 1/11/6
f 9/2/7 8/1/7 10/12/7
f 6/13/8 7/14/8 10/12/8
f 8/1/9 6/13/9 10/12/9
f 7/14/10 9/2/10 10/12/10
f 7/15/11 6/8/11 1/11/11 2/16/11
f 9/17/12 7/15/12 2/16/12 4/18/12
