# Blender v3.0.0 OBJ File: 'Thirty2D Attach Point Sprite Scramble Location.blend'
# www.blender.org
mtllib left_foot.mtl
o left_foot
v 0.373162 -0.297432 0.087531
v 0.385960 -0.298245 0.226551
v 0.389275 -0.260457 -0.022629
v 0.362342 -0.334457 0.066244
v 0.374367 -0.342668 0.217277
v 0.367025 -0.371457 0.051921
v 0.376960 -0.326858 -0.074611
v 0.393595 -0.396598 -0.078289
v 0.401739 -0.316017 -0.239866
v 0.417993 -0.252571 -0.211046
v 0.482253 -0.313593 -0.369980
v 0.392568 -0.371847 -0.249475
v 0.464113 -0.392612 -0.353790
v 0.427880 -0.427435 -0.222762
v 0.523293 -0.438184 -0.339093
v 0.656525 -0.387096 -0.418559
v 0.656603 -0.313730 -0.417251
v 0.784280 -0.438485 -0.345809
v 0.671344 -0.438056 -0.369625
v 0.716275 -0.439794 -0.220239
v 0.774451 -0.438352 -0.356429
v 0.816864 -0.439690 -0.242448
v 0.887555 -0.442422 -0.007552
v 0.856750 -0.439890 -0.229717
v 0.947429 -0.416656 -0.015339
v 0.873839 -0.327665 -0.251783
v 0.780087 -0.318740 -0.371733
v 0.850576 -0.247791 -0.264805
v 1.000647 -0.343524 -0.026616
v 0.999638 -0.270391 -0.021507
v 1.083836 -0.359382 0.211732
v 1.084125 -0.286250 0.216448
v 1.146294 -0.375241 0.456344
v 0.995718 -0.445053 0.213426
v 1.075834 -0.448191 0.483257
v 0.868636 -0.445672 0.284989
v 0.916279 -0.443832 0.114570
v 0.831801 -0.444245 0.162326
v 0.788376 -0.442573 0.018621
v 0.704862 -0.444570 0.207681
v 0.606084 -0.443071 0.086534
v 0.668817 -0.445848 0.326436
v 0.569639 -0.444233 0.194922
v 0.490779 -0.446638 0.419835
v 0.712535 -0.449736 0.667910
v 0.767296 -0.453023 0.954299
v 0.542483 -0.450723 0.777865
v 0.923054 -0.448605 0.539856
v 1.018174 -0.451883 0.820240
v 1.132123 -0.431605 0.864181
v 1.008698 -0.448510 0.970593
v 1.111515 -0.450684 0.701254
v 1.151198 -0.397604 0.751470
v 1.139200 -0.383186 0.870954
v 1.140796 -0.323710 0.729946
v 1.093043 -0.267063 0.660229
v 1.145499 -0.302109 0.461388
v 1.006236 -0.312003 0.884349
v 1.139438 -0.360695 0.872751
v 1.035943 -0.353940 0.949775
v 1.064472 -0.406448 0.945491
v 0.814479 -0.352930 1.085068
v 0.772643 -0.310655 1.028046
v 0.674942 -0.358190 1.124456
v 0.830301 -0.402013 1.093410
v 0.680636 -0.397277 1.124090
v 0.823705 -0.444272 1.069820
v 0.702064 -0.432738 1.108788
v 0.622405 -0.453791 1.041469
v 0.530545 -0.382304 1.036526
v 0.550829 -0.324203 1.043018
v 0.452411 -0.390674 0.807019
v 0.453093 -0.357077 0.945439
v 0.412604 -0.354787 0.769631
v 0.455519 -0.332844 0.947509
v 0.417588 -0.322029 0.774641
v 0.408567 -0.307683 0.467351
v 0.464762 -0.286732 0.795650
v 0.552156 -0.243073 0.753327
v 0.444776 -0.260975 0.452883
v 0.520235 -0.208154 0.427943
v 0.412468 -0.251053 0.191627
v 0.447597 -0.189766 0.155769
v 0.487351 -0.124742 0.127248
v 0.418960 -0.179320 -0.075949
v 0.449360 -0.114654 -0.046084
v 0.432877 -0.198103 -0.201977
v 0.449123 -0.144854 -0.209782
v 0.497186 -0.170090 -0.288087
v 0.509775 -0.100493 -0.204394
v 0.561760 -0.058494 -0.078772
v 0.711605 -0.099856 -0.267900
v 0.537487 -0.118752 -0.287086
v 0.636619 -0.117485 -0.319300
v 0.661776 -0.171295 -0.348792
v 0.767474 -0.174151 -0.330483
v 0.686277 -0.238226 -0.376261
v 0.775314 -0.213635 -0.344855
v 0.778862 -0.261730 -0.360075
v 0.503897 -0.242068 -0.329717
v 0.864349 -0.182080 -0.228012
v 0.978224 -0.197259 -0.010233
v 0.859274 -0.111817 -0.174007
v 0.854977 -0.073211 -0.119547
v 0.921830 -0.121573 0.007957
v 0.871569 -0.076817 -0.064639
v 0.868320 -0.100780 0.111119
v 0.959583 -0.155694 0.182678
v 1.018114 -0.210305 0.246301
v 0.852142 -0.142315 0.281600
v 0.699612 -0.144006 0.339061
v 0.763781 -0.093123 0.200758
v 0.939780 -0.189339 0.364547
v 0.820516 -0.183220 0.475011
v 0.786220 -0.183217 0.492746
v 0.913088 -0.212110 0.550611
v 0.971043 -0.261681 0.769718
v 1.074229 -0.246194 0.489459
v 0.725346 -0.210888 0.660686
v 0.648823 -0.187638 0.504669
v 0.748931 -0.261845 0.911814
v 0.596935 -0.272731 0.949292
v 0.790009 -0.070675 0.051132
v 0.735563 -0.093123 0.209285
v 0.624854 -0.071410 0.088436
v 0.593305 -0.102659 0.173457
v 0.491567 -0.078394 0.030701
v 0.676931 0.281418 -0.013224
v 0.741133 -0.056291 -0.138553
v 0.482248 -0.076361 -0.000256
v 0.555790 -0.158992 0.309480
v 0.402687 -0.356734 0.452876
v 0.413704 -0.387633 0.328595
v 0.431107 -0.390165 0.546055
v 0.385019 -0.381894 0.179953
v 0.457744 -0.443634 0.155894
v 0.491781 -0.442468 0.047423
v 0.459227 -0.441218 -0.060016
v 0.520105 -0.440126 -0.165363
vt 0.000000 0.000000
vt 0.000000 0.000000
vt 0.000000 0.000000
vt 0.000000 0.000000
vt 0.000000 0.000000
vt 0.000000 0.000000
vt 0.000000 0.000000
vt 0.000000 0.000000
vt 0.000000 0.000000
vt 0.000000 0.000000
vt 0.000000 0.000000
vt 0.000000 0.000000
vt 0.000000 0.000000
vt 0.000000 0.000000
vt 0.000000 0.000000
vt 0.000000 0.000000
vt 0.000000 0.000000
vt 0.000000 0.000000
vt 0.000000 0.000000
vt 0.000000 0.000000
vt 0.000000 0.000000
vt 0.000000 0.000000
vt 0.000000 0.000000
vt 0.000000 0.000000
vt 0.000000 0.000000
vt 0.000000 0.000000
vt 0.000000 0.000000
vt 0.000000 0.000000
vt 0.000000 0.000000
vt 0.000000 0.000000
vt 0.000000 0.000000
vt 0.000000 0.000000
vt 0.000000 0.000000
vt 0.000000 0.000000
vt 0.000000 0.000000
vt 0.000000 0.000000
vt 0.000000 0.000000
vt 0.000000 0.000000
vt 0.000000 0.000000
vt 0.000000 0.000000
vt 0.000000 0.000000
vt 0.000000 0.000000
vt 0.000000 0.000000
vt 0.000000 0.000000
vt 0.000000 0.000000
vt 0.000000 0.000000
vt 0.000000 0.000000
vt 0.000000 0.000000
vt 0.000000 0.000000
vt 0.000000 0.000000
vt 0.000000 0.000000
vt 0.000000 0.000000
vt 0.000000 0.000000
vt 0.000000 0.000000
vt 0.000000 0.000000
vt 0.000000 0.000000
vt 0.000000 0.000000
vt 0.000000 0.000000
vt 0.000000 0.000000
vt 0.000000 0.000000
vt 0.000000 0.000000
vt 0.000000 0.000000
vt 0.000000 0.000000
vt 0.000000 0.000000
vt 0.000000 0.000000
vt 0.000000 0.000000
vt 0.000000 0.000000
vt 0.000000 0.000000
vt 0.000000 0.000000
vt 0.000000 0.000000
vt 0.000000 0.000000
vt 0.000000 0.000000
vt 0.000000 0.000000
vt 0.000000 0.000000
vt 0.000000 0.000000
vt 0.000000 0.000000
vt 0.000000 0.000000
vt 0.000000 0.000000
vt 0.000000 0.000000
vt 0.000000 0.000000
vt 0.000000 0.000000
vt 0.000000 0.000000
vt 0.000000 0.000000
vt 0.000000 0.000000
vt 0.000000 0.000000
vt 0.000000 0.000000
vt 0.000000 0.000000
vt 0.000000 0.000000
vt 0.000000 0.000000
vt 0.000000 0.000000
vt 0.000000 0.000000
vt 0.000000 0.000000
vt 0.000000 0.000000
vt 0.000000 0.000000
vt 0.000000 0.000000
vt 0.000000 0.000000
vt 0.000000 0.000000
vt 0.000000 0.000000
vt 0.000000 0.000000
vt 0.000000 0.000000
vt 0.000000 0.000000
vt 0.000000 0.000000
vt 0.000000 0.000000
vt 0.000000 0.000000
vt 0.000000 0.000000
vt 0.000000 0.000000
vt 0.000000 0.000000
vt 0.000000 0.000000
vt 0.000000 0.000000
vt 0.000000 0.000000
vt 0.000000 0.000000
vt 0.000000 0.000000
vt 0.000000 0.000000
vt 0.000000 0.000000
vt 0.000000 0.000000
vt 0.000000 0.000000
vt 0.000000 0.000000
vt 0.000000 0.000000
vt 0.000000 0.000000
vt 0.000000 0.000000
vt 0.000000 0.000000
vt 0.000000 0.000000
vt 0.000000 0.000000
vt 0.000000 0.000000
vt 0.000000 0.000000
vt 0.000000 0.000000
vt 0.000000 0.000000
vt 0.000000 0.000000
vt 0.000000 0.000000
vt 0.000000 0.000000
vt 0.000000 0.000000
vt 0.000000 0.000000
vt 0.000000 0.000000
vt 0.000000 0.000000
vt 0.000000 0.000000
vt 0.000000 0.000000
vt 0.000000 0.000000
vt 0.000000 0.000000
vt 0.000000 0.000000
vn -0.9684 0.2327 0.0901
vn -0.8345 0.5463 0.0717
vn -0.9616 0.2652 -0.0706
vn -0.9637 -0.2527 0.0868
vn -0.9756 -0.1717 -0.1371
vn -0.9958 -0.0512 -0.0757
vn -0.9488 0.2886 -0.1282
vn -0.7506 0.4557 -0.4784
vn -0.8256 0.1405 -0.5465
vn -0.7775 -0.5937 -0.2076
vn -0.2909 -0.0585 -0.9550
vn -0.2913 -0.9445 -0.1516
vn -0.1972 -0.6404 -0.7423
vn 0.4037 -0.1072 -0.9086
vn 0.1655 -0.5832 -0.7953
vn -0.0014 -0.9999 -0.0112
vn 0.2501 -0.9671 -0.0457
vn 0.8033 -0.1632 -0.5728
vn 0.8290 -0.3871 -0.4037
vn 0.7841 0.1342 -0.6060
vn 0.8603 0.1108 -0.4975
vn 0.9435 0.0268 -0.3304
vn 0.7102 -0.6535 -0.2618
vn 0.9696 0.0196 -0.2440
vn 0.6717 -0.7098 -0.2124
vn 0.2586 -0.9561 -0.1380
vn 0.0158 -0.9990 0.0428
vn 0.4020 -0.9139 0.0562
vn 0.3150 -0.9236 0.2186
vn 0.7581 -0.6457 -0.0912
vn 0.9000 -0.1866 0.3938
vn 0.9913 0.1169 0.0605
vn 0.9970 0.0766 0.0056
vn 0.3908 0.8616 0.3241
vn 0.6771 0.7342 0.0492
vn 0.3508 0.8905 0.2898
vn 0.6283 0.1755 0.7579
vn 0.5125 0.2564 0.8195
vn 0.2702 0.8597 0.4334
vn 0.0232 0.8872 0.4609
vn 0.2328 0.1438 0.9618
vn 0.2042 -0.4066 0.8905
vn 0.4733 -0.3355 0.8145
vn 0.0269 -0.9896 0.1413
vn -0.4564 -0.5511 0.6986
vn -0.5589 -0.8077 0.1878
vn -0.5222 0.0182 0.8526
vn -0.7220 0.1284 0.6799
vn -0.6093 -0.7699 0.1899
vn -0.9701 0.0986 0.2219
vn -0.4556 0.8591 0.2331
vn -0.9918 0.1239 0.0326
vn -0.7022 0.7080 0.0750
vn -0.3821 0.8903 0.2476
vn -0.4704 0.8748 0.1160
vn -0.6613 0.7309 0.1689
vn -0.7988 0.5915 0.1102
vn -0.8793 0.4648 0.1033
vn -0.6023 0.7498 0.2739
vn -0.8680 0.4678 0.1665
vn -0.7424 0.6590 -0.1205
vn -0.9160 0.2314 -0.3277
vn -0.9534 0.2681 -0.1386
vn -0.5959 0.6592 -0.4586
vn -0.4790 0.8619 -0.1665
vn -0.1001 0.9525 -0.2876
vn -0.0797 0.9696 -0.2314
vn -0.3164 0.3060 -0.8979
vn 0.2236 0.6581 -0.7189
vn 0.1830 0.4074 -0.8947
vn -0.2761 0.3776 -0.8838
vn 0.5489 0.2887 -0.7844
vn 0.2982 0.2964 -0.9073
vn -0.2209 0.5297 -0.8189
vn -0.8003 0.2670 -0.5368
vn 0.7313 0.2645 -0.6287
vn 0.5016 0.6613 -0.5577
vn 0.8566 0.2103 -0.4712
vn 0.8040 0.4988 -0.3237
vn 0.8341 0.4913 -0.2510
vn 0.2781 0.8621 -0.4236
vn 0.3942 0.9096 0.1313
vn 0.4058 0.8977 0.1714
vn 0.7596 0.6470 -0.0660
vn 0.4084 0.8886 0.2089
vn 0.0768 0.9741 0.2127
vn 0.1365 0.9075 0.3972
vn 0.2594 0.9399 0.2222
vn 0.2298 0.9534 0.1953
vn 0.1256 0.9698 0.2089
vn 0.2995 0.9478 0.1090
vn 0.2148 0.9676 0.1325
vn 0.1182 0.9750 0.1880
vn -0.0558 0.9811 0.1854
vn -0.1621 0.9746 0.1543
vn -0.0137 0.9787 0.2046
vn 0.2147 0.9161 0.3386
vn 0.0015 0.9023 0.4311
vn -0.2179 0.9453 0.2426
vn 0.6717 0.7361 -0.0837
vn 0.0321 0.9880 0.1513
vn -0.1421 0.9386 0.3143
vn -0.9028 0.2367 0.3590
vn -0.1044 0.9881 0.1127
vn -0.2564 0.9060 0.3367
vn 0.2128 0.2414 0.9468
vn -0.3067 0.2794 -0.9099
vn 0.9394 0.2611 -0.2223
vn 0.1350 0.9902 0.0367
vn -0.8364 0.5005 0.2234
vn -0.2326 0.9196 0.3167
vn 0.8270 0.5337 -0.1768
vn -0.9815 0.1549 0.1126
vn -0.7045 -0.7080 0.0481
vn -0.8599 -0.5003 0.1018
vn -0.7507 -0.6593 0.0422
vn -0.5725 -0.8176 0.0615
vn -0.6472 -0.7580 0.0808
vn -0.6382 -0.7695 0.0226
vn -0.4095 -0.9122 -0.0130
vn -0.3347 -0.9422 -0.0153
usemtl blue
s off
f 5/1/1 2/2/1 1/3/1 4/4/1
f 82/5/2 3/6/2 1/3/2 2/2/2
f 4/4/3 1/3/3 3/6/3 7/7/3
f 135/8/4 5/1/4 4/4/4 6/9/4
f 6/9/5 4/4/5 7/7/5 8/10/5
f 8/10/6 7/7/6 9/11/6 12/12/6
f 7/7/7 3/6/7 10/13/7 9/11/7
f 9/11/8 10/13/8 100/14/8 11/15/8
f 12/12/9 9/11/9 11/15/9 13/16/9
f 8/10/10 12/12/10 13/16/10 14/17/10
f 13/16/11 11/15/11 17/18/11 16/19/11
f 139/20/12 14/17/12 13/16/12 15/21/12
f 15/21/13 13/16/13 16/19/13 19/22/13
f 16/19/14 17/18/14 27/23/14 18/24/14
f 19/22/15 16/19/15 18/24/15 21/25/15
f 20/26/16 19/22/16 21/25/16 22/27/16
f 139/20/16 15/21/16 19/22/16 20/26/16
f 21/25/16 18/24/16 24/28/16 22/27/16
f 39/29/16 20/26/16 22/27/16 23/30/16
f 22/27/17 24/28/17 25/31/17 23/30/17
f 18/24/18 27/23/18 26/32/18 24/28/18
f 24/28/19 26/32/19 29/33/19 25/31/19
f 27/23/20 99/34/20 28/35/20 26/32/20
f 26/32/21 28/35/21 30/36/21 29/33/21
f 29/33/22 30/36/22 32/37/22 31/38/22
f 25/31/23 29/33/23 31/38/23 34/39/23
f 31/38/24 32/37/24 57/40/24 33/41/24
f 34/39/25 31/38/25 33/41/25 35/42/25
f 48/43/16 36/44/16 34/39/16 35/42/16
f 37/45/16 34/39/16 36/44/16 38/46/16
f 23/30/26 25/31/26 34/39/26 37/45/26
f 38/46/16 39/29/16 23/30/16 37/45/16
f 40/47/16 41/48/16 39/29/16 38/46/16
f 38/46/16 36/44/16 42/49/16 40/47/16
f 40/47/16 42/49/16 43/50/16 41/48/16
f 44/51/16 136/52/16 43/50/16 42/49/16
f 47/53/16 44/51/16 42/49/16 45/54/16
f 45/54/16 42/49/16 36/44/16 48/43/16
f 46/55/16 45/54/16 48/43/16 49/56/16
f 69/57/16 47/53/16 45/54/16 46/55/16
f 49/56/16 48/43/16 35/42/16 52/58/16
f 67/59/27 46/55/27 49/56/27 51/60/27
f 52/58/28 53/61/28 50/62/28 49/56/28
f 49/56/29 50/62/29 61/63/29 51/60/29
f 35/42/30 33/41/30 53/61/30 52/58/30
f 61/63/31 50/62/31 53/61/31 54/64/31
f 53/61/32 55/65/32 59/66/32 54/64/32
f 33/41/33 57/40/33 55/65/33 53/61/33
f 55/65/34 56/67/34 117/68/34 58/69/34
f 57/40/35 118/70/35 56/67/35 55/65/35
f 59/66/36 55/65/36 58/69/36 60/71/36
f 54/64/37 59/66/37 60/71/37 61/63/37
f 61/63/38 60/71/38 62/72/38 65/73/38
f 60/71/39 58/69/39 63/74/39 62/72/39
f 62/72/40 63/74/40 71/75/40 64/76/40
f 65/73/41 62/72/41 64/76/41 66/77/41
f 67/59/42 65/73/42 66/77/42 68/78/42
f 51/60/43 61/63/43 65/73/43 67/59/43
f 68/78/44 69/57/44 46/55/44 67/59/44
f 68/78/45 66/77/45 70/79/45 69/57/45
f 69/57/46 70/79/46 72/80/46 47/53/46
f 66/77/47 64/76/47 71/75/47 70/79/47
f 70/79/48 71/75/48 75/81/48 73/82/48
f 73/82/49 74/83/49 72/80/49 70/79/49
f 73/82/50 75/81/50 76/84/50 74/83/50
f 71/75/51 78/85/51 76/84/51 75/81/51
f 74/83/52 76/84/52 77/86/52 132/87/52
f 78/85/53 80/88/53 77/86/53 76/84/53
f 71/75/54 122/89/54 79/90/54 78/85/54
f 78/85/55 79/90/55 81/91/55 80/88/55
f 80/88/56 81/91/56 83/92/56 82/5/56
f 80/88/57 82/5/57 2/2/57 77/86/57
f 82/5/58 83/92/58 85/93/58 3/6/58
f 81/91/59 131/94/59 84/95/59 83/92/59
f 83/92/60 84/95/60 86/96/60 85/93/60
f 85/93/61 86/96/61 90/97/61 88/98/61
f 88/98/62 89/99/62 87/100/62 85/93/62
f 3/6/63 85/93/63 87/100/63 10/13/63
f 88/98/64 90/97/64 93/101/64 89/99/64
f 86/96/65 130/102/65 91/103/65 90/97/65
f 90/97/66 91/103/66 129/104/66 92/105/66
f 92/105/67 94/106/67 93/101/67 90/97/67
f 89/99/68 93/101/68 94/106/68 95/107/68
f 95/107/69 94/106/69 92/105/69 96/108/69
f 97/109/70 95/107/70 96/108/70 98/110/70
f 100/14/71 89/99/71 95/107/71 97/109/71
f 28/35/72 99/34/72 97/109/72 98/110/72
f 17/18/73 97/109/73 99/34/73 27/23/73
f 11/15/74 100/14/74 97/109/74 17/18/74
f 10/13/75 87/100/75 89/99/75 100/14/75
f 98/110/76 96/108/76 101/111/76 28/35/76
f 96/108/77 92/105/77 103/112/77 101/111/77
f 28/35/78 101/111/78 102/113/78 30/36/78
f 101/111/79 103/112/79 105/114/79 102/113/79
f 103/112/80 104/115/80 106/116/80 105/114/80
f 92/105/81 129/104/81 104/115/81 103/112/81
f 105/114/82 106/116/82 123/117/82 107/118/82
f 108/119/83 105/114/83 107/118/83 110/120/83
f 102/113/84 105/114/84 108/119/84 109/121/84
f 109/121/85 108/119/85 110/120/85 113/122/85
f 114/123/86 110/120/86 111/124/86 115/125/86
f 110/120/87 112/126/87 124/127/87 111/124/87
f 107/118/88 123/117/88 112/126/88 110/120/88
f 113/122/89 110/120/89 114/123/89 116/128/89
f 116/128/90 114/123/90 115/125/90 119/129/90
f 118/70/91 109/121/91 113/122/91 116/128/91
f 56/67/92 118/70/92 116/128/92 117/68/92
f 117/68/93 116/128/93 119/129/93 121/130/93
f 121/130/94 119/129/94 79/90/94 122/89/94
f 119/129/95 120/131/95 81/91/95 79/90/95
f 119/129/96 115/125/96 111/124/96 120/131/96
f 58/69/97 117/68/97 121/130/97 63/74/97
f 63/74/98 121/130/98 122/89/98 71/75/98
f 120/131/99 111/124/99 131/94/99 81/91/99
f 32/37/100 109/121/100 118/70/100 57/40/100
f 112/126/101 123/117/101 125/132/101 124/127/101
f 111/124/102 124/127/102 125/132/102 126/133/102
f 91/103/103 125/132/103 128/134/103
f 125/132/104 91/103/104 130/102/104 127/135/104
f 126/133/105 125/132/105 127/135/105 84/95/105
f 128/134/106 125/132/106 123/117/106
f 129/104/107 91/103/107 128/134/107
f 123/117/108 129/104/108 128/134/108
f 106/116/109 104/115/109 129/104/109 123/117/109
f 84/95/110 127/135/110 130/102/110 86/96/110
f 111/124/111 126/133/111 84/95/111 131/94/111
f 30/36/112 102/113/112 109/121/112 32/37/112
f 132/87/113 77/86/113 2/2/113 5/1/113
f 44/51/114 134/136/114 132/87/114 133/137/114
f 133/137/115 132/87/115 5/1/115 135/8/115
f 74/83/116 132/87/116 134/136/116 72/80/116
f 47/53/117 72/80/117 134/136/117 44/51/117
f 133/137/118 135/8/118 136/52/118 44/51/118
f 135/8/119 6/9/119 8/10/119 136/52/119
f 137/138/120 136/52/120 8/10/120 138/139/120
f 41/48/16 43/50/16 136/52/16 137/138/16
f 137/138/16 138/139/16 139/20/16 41/48/16
f 138/139/121 8/10/121 14/17/121 139/20/121
f 41/48/16 139/20/16 20/26/16 39/29/16
