# Blender v3.0.0 OBJ File: 'Thirty2D Attach Point Sprite Scramble Location.blend'
# www.blender.org
mtllib right_arm_upper.mtl
o right_arm_upper
v 0.249493 0.437585 0.249492
v 0.249492 0.437585 -0.249492
v -0.249491 0.437586 0.249492
v 0.000001 0.939597 -0.000000
v 0.249491 -0.437586 0.249492
v 0.249491 -0.437586 -0.249492
v -0.249492 -0.437585 0.249492
v -0.000001 -0.939598 -0.000000
v -0.249493 -0.437586 -0.249492
v -0.249492 0.437585 -0.249492
vt 0.000000 0.000000
vt 0.000000 0.000000
vt 0.000000 0.000000
vt 0.000000 0.000000
vt 0.875000 0.750000
vt 0.875000 0.500000
vt 0.750000 0.625000
vt 0.000000 0.000000
vt 0.000000 0.000000
vt 0.625000 0.750000
vt 0.875000 0.750000
vt 0.750000 0.625000
vt 0.875000 0.500000
vt 0.625000 0.750000
vt 0.625000 0.500000
vt 0.000000 0.000000
vt 0.000000 0.000000
vt 0.625000 0.500000
vn 1.0000 -0.0000 -0.0000
vn 0.8955 0.4451 -0.0000
vn 0.0000 0.0000 1.0000
vn 0.0000 0.4451 0.8955
vn 0.8955 -0.4451 -0.0000
vn -0.0000 -0.4451 0.8955
vn -0.0000 -0.4451 -0.8955
vn -0.8955 -0.4451 0.0000
vn -0.0000 -0.0000 -1.0000
vn -1.0000 0.0000 0.0000
vn -0.0000 0.4451 -0.8955
vn -0.8955 0.4451 0.0000
usemtl rust
s off
f 6/1/1 2/2/1 1/3/1 5/4/1
f 1/5/2 2/6/2 4/7/2
f 5/4/3 1/3/3 3/8/3 7/9/3
f 3/10/4 1/5/4 4/7/4
f 5/11/5 8/12/5 6/13/5
f 7/14/6 8/12/6 5/11/6
f 6/13/7 8/12/7 9/15/7
f 9/15/8 8/12/8 7/14/8
f 9/16/9 10/17/9 2/2/9 6/1/9
f 7/14/10 3/10/10 10/18/10 9/15/10
f 2/6/11 10/18/11 4/7/11
f 10/18/12 3/10/12 4/7/12
