# Blender v3.0.0 OBJ File: 'Thirty2D Attach Point Sprite Scramble Location.blend'
# www.blender.org
mtllib right_foot.mtl
o right_foot
v -0.373162 -0.297432 0.087531
v -0.385960 -0.298244 0.226551
v -0.482248 -0.076361 -0.000256
v -0.491567 -0.078393 0.030701
v -0.449360 -0.114653 -0.046083
v -0.487351 -0.124741 0.127248
v -0.432878 -0.198103 -0.201977
v -0.418960 -0.179320 -0.075949
v -0.447597 -0.189766 0.155769
v -0.417994 -0.252570 -0.211045
v -0.389275 -0.260457 -0.022629
v -0.412468 -0.251053 0.191627
v -0.561760 -0.058493 -0.078772
v -0.624854 -0.071409 0.088436
v -0.537488 -0.118752 -0.287086
v -0.509775 -0.100492 -0.204393
v -0.593305 -0.102659 0.173458
v -0.497186 -0.170089 -0.288086
v -0.449123 -0.144854 -0.209781
v -0.503897 -0.242068 -0.329717
v -0.408567 -0.307683 0.467351
v -0.417588 -0.322028 0.774642
v -0.455518 -0.332843 0.947509
v -0.555790 -0.158992 0.309480
v -0.520235 -0.208153 0.427944
v -0.552155 -0.243073 0.753328
v -0.596935 -0.272731 0.949293
v -0.444776 -0.260974 0.452883
v -0.464762 -0.286732 0.795650
v -0.550829 -0.324202 1.043019
v -0.674942 -0.358189 1.124457
v -0.735562 -0.093122 0.209285
v -0.699612 -0.144005 0.339061
v -0.786220 -0.183217 0.492747
v -0.648822 -0.187637 0.504670
v -0.725346 -0.210887 0.660686
v -0.748931 -0.261844 0.911814
v -0.772642 -0.310654 1.028046
v -0.814478 -0.352929 1.085069
v -0.362342 -0.334456 0.066245
v -0.374367 -0.342667 0.217278
v -0.367025 -0.371457 0.051921
v -0.385019 -0.381894 0.179953
v -0.401740 -0.316017 -0.239866
v -0.376960 -0.326857 -0.074611
v -0.392568 -0.371847 -0.249475
v -0.393596 -0.396598 -0.078289
v -0.457744 -0.443634 0.155894
v -0.459227 -0.441217 -0.060016
v -0.491781 -0.442468 0.047423
v -0.482253 -0.313592 -0.369980
v -0.464113 -0.392611 -0.353790
v -0.427881 -0.427435 -0.222762
v -0.569640 -0.444232 0.194922
v -0.523293 -0.438184 -0.339092
v -0.520105 -0.440125 -0.165363
v -0.606085 -0.443070 0.086534
v -0.402687 -0.356734 0.452877
v -0.412604 -0.354787 0.769631
v -0.453093 -0.357076 0.945439
v -0.413704 -0.387633 0.328595
v -0.431107 -0.390164 0.546056
v -0.452411 -0.390673 0.807019
v -0.530545 -0.382303 1.036526
v -0.680635 -0.397276 1.124091
v -0.490779 -0.446638 0.419836
v -0.542483 -0.450722 0.777866
v -0.622404 -0.453790 1.041470
v -0.702063 -0.432737 1.108789
v -0.830300 -0.402012 1.093410
v -0.668817 -0.445848 0.326437
v -0.712535 -0.449735 0.667910
v -0.767296 -0.453022 0.954299
v -0.823705 -0.444271 1.069820
v -0.704862 -0.444569 0.207682
v -0.741133 -0.056290 -0.138553
v -0.790009 -0.070674 0.051132
v -0.636620 -0.117484 -0.319299
v -0.711605 -0.099855 -0.267900
v -0.868320 -0.100779 0.111120
v -0.661777 -0.171294 -0.348792
v -0.767474 -0.174150 -0.330482
v -0.686277 -0.238225 -0.376260
v -0.775314 -0.213634 -0.344854
v -0.854977 -0.073210 -0.119547
v -0.871569 -0.076816 -0.064638
v -0.859274 -0.111816 -0.174006
v -0.921830 -0.121572 0.007958
v -0.864349 -0.182079 -0.228012
v -0.978224 -0.197258 -0.010232
v -0.778863 -0.261729 -0.360074
v -0.850576 -0.247790 -0.264804
v -0.999638 -0.270390 -0.021506
v -0.763781 -0.093122 0.200759
v -0.852142 -0.142314 0.281601
v -0.820516 -0.183219 0.475011
v -0.939779 -0.189338 0.364547
v -0.913088 -0.212108 0.550612
v -0.971043 -0.261680 0.769718
v -1.006235 -0.312002 0.884350
v -1.035943 -0.353939 0.949776
v -0.959583 -0.155693 0.182679
v -1.018114 -0.210304 0.246302
v -1.074229 -0.246192 0.489460
v -1.093043 -0.267062 0.660230
v -1.084125 -0.286249 0.216449
v -1.145499 -0.302107 0.461388
v -1.140796 -0.323709 0.729947
v -1.139438 -0.360693 0.872751
v -0.656603 -0.313730 -0.417251
v -0.656526 -0.387096 -0.418559
v -0.671345 -0.438055 -0.369624
v -0.716276 -0.439793 -0.220239
v -0.788376 -0.442572 0.018621
v -0.780087 -0.318740 -0.371732
v -0.873840 -0.327664 -0.251783
v -1.000647 -0.343523 -0.026615
v -0.784280 -0.438484 -0.345808
v -0.856751 -0.439889 -0.229716
v -0.947429 -0.416655 -0.015338
v -0.774451 -0.438351 -0.356428
v -0.816864 -0.439689 -0.242447
v -0.887556 -0.442421 -0.007552
v -1.132123 -0.431603 0.864182
v -1.064471 -0.406446 0.945492
v -0.868636 -0.445671 0.284990
v -0.923054 -0.448604 0.539856
v -1.018174 -0.451881 0.820241
v -1.008698 -0.448509 0.970594
v -0.831801 -0.444244 0.162327
v -1.083836 -0.359381 0.211733
v -1.146294 -0.375240 0.456344
v -1.151198 -0.397603 0.751471
v -1.139200 -0.383185 0.870955
v -0.995719 -0.445052 0.213427
v -1.075834 -0.448190 0.483258
v -1.111515 -0.450683 0.701254
v -0.916279 -0.443831 0.114571
v -0.676931 0.281419 -0.013224
vt 0.000000 0.000000
vt 0.000000 0.000000
vt 0.000000 0.000000
vt 0.000000 0.000000
vt 0.000000 0.000000
vt 0.000000 0.000000
vt 0.000000 0.000000
vt 0.000000 0.000000
vt 0.000000 0.000000
vt 0.000000 0.000000
vt 0.000000 0.000000
vt 0.000000 0.000000
vt 0.000000 0.000000
vt 0.000000 0.000000
vt 0.000000 0.000000
vt 0.000000 0.000000
vt 0.000000 0.000000
vt 0.000000 0.000000
vt 0.000000 0.000000
vt 0.000000 0.000000
vt 0.000000 0.000000
vt 0.000000 0.000000
vt 0.000000 0.000000
vt 0.000000 0.000000
vt 0.000000 0.000000
vt 0.000000 0.000000
vt 0.000000 0.000000
vt 0.000000 0.000000
vt 0.000000 0.000000
vt 0.000000 0.000000
vt 0.000000 0.000000
vt 0.000000 0.000000
vt 0.000000 0.000000
vt 0.000000 0.000000
vt 0.000000 0.000000
vt 0.000000 0.000000
vt 0.000000 0.000000
vt 0.000000 0.000000
vt 0.000000 0.000000
vt 0.000000 0.000000
vt 0.000000 0.000000
vt 0.000000 0.000000
vt 0.000000 0.000000
vt 0.000000 0.000000
vt 0.000000 0.000000
vt 0.000000 0.000000
vt 0.000000 0.000000
vt 0.000000 0.000000
vt 0.000000 0.000000
vt 0.000000 0.000000
vt 0.000000 0.000000
vt 0.000000 0.000000
vt 0.000000 0.000000
vt 0.000000 0.000000
vt 0.000000 0.000000
vt 0.000000 0.000000
vt 0.000000 0.000000
vt 0.000000 0.000000
vt 0.000000 0.000000
vt 0.000000 0.000000
vt 0.000000 0.000000
vt 0.000000 0.000000
vt 0.000000 0.000000
vt 0.000000 0.000000
vt 0.000000 0.000000
vt 0.000000 0.000000
vt 0.000000 0.000000
vt 0.000000 0.000000
vt 0.000000 0.000000
vt 0.000000 0.000000
vt 0.000000 0.000000
vt 0.000000 0.000000
vt 0.000000 0.000000
vt 0.000000 0.000000
vt 0.000000 0.000000
vt 0.000000 0.000000
vt 0.000000 0.000000
vt 0.000000 0.000000
vt 0.000000 0.000000
vt 0.000000 0.000000
vt 0.000000 0.000000
vt 0.000000 0.000000
vt 0.000000 0.000000
vt 0.000000 0.000000
vt 0.000000 0.000000
vt 0.000000 0.000000
vt 0.000000 0.000000
vt 0.000000 0.000000
vt 0.000000 0.000000
vt 0.000000 0.000000
vt 0.000000 0.000000
vt 0.000000 0.000000
vt 0.000000 0.000000
vt 0.000000 0.000000
vt 0.000000 0.000000
vt 0.000000 0.000000
vt 0.000000 0.000000
vt 0.000000 0.000000
vt 0.000000 0.000000
vt 0.000000 0.000000
vt 0.000000 0.000000
vt 0.000000 0.000000
vt 0.000000 0.000000
vt 0.000000 0.000000
vt 0.000000 0.000000
vt 0.000000 0.000000
vt 0.000000 0.000000
vt 0.000000 0.000000
vt 0.000000 0.000000
vt 0.000000 0.000000
vt 0.000000 0.000000
vt 0.000000 0.000000
vt 0.000000 0.000000
vt 0.000000 0.000000
vt 0.000000 0.000000
vt 0.000000 0.000000
vt 0.000000 0.000000
vt 0.000000 0.000000
vt 0.000000 0.000000
vt 0.000000 0.000000
vt 0.000000 0.000000
vt 0.000000 0.000000
vt 0.000000 0.000000
vt 0.000000 0.000000
vt 0.000000 0.000000
vt 0.000000 0.000000
vt 0.000000 0.000000
vt 0.000000 0.000000
vt 0.000000 0.000000
vt 0.000000 0.000000
vt 0.000000 0.000000
vt 0.000000 0.000000
vt 0.000000 0.000000
vt 0.000000 0.000000
vt 0.000000 0.000000
vt 0.000000 0.000000
vt 0.000000 0.000000
vt 0.000000 0.000000
vt 0.000000 0.000000
vn 0.8364 0.5005 0.2234
vn 0.8680 0.4678 0.1665
vn 0.9534 0.2681 -0.1386
vn 0.8793 0.4648 0.1033
vn 0.8345 0.5463 0.0717
vn 0.1044 0.9881 0.1127
vn 0.4790 0.8619 -0.1665
vn 0.2564 0.9060 0.3367
vn 0.5959 0.6592 -0.4586
vn 0.9160 0.2314 -0.3277
vn 0.7424 0.6590 -0.1205
vn 0.8003 0.2670 -0.5368
vn 0.6023 0.7498 0.2739
vn 0.6613 0.7309 0.1689
vn 0.7988 0.5915 0.1102
vn 0.4704 0.8748 0.1160
vn 0.7022 0.7080 0.0750
vn 0.3821 0.8903 0.2476
vn 0.4556 0.8591 0.2331
vn 0.1421 0.9386 0.3143
vn 0.2326 0.9196 0.3167
vn 0.2179 0.9453 0.2426
vn 0.0137 0.9787 0.2046
vn 0.1621 0.9746 0.1543
vn 0.0558 0.9811 0.1854
vn -0.0015 0.9023 0.4311
vn -0.0232 0.8872 0.4609
vn 0.9684 0.2327 0.0901
vn 0.9637 -0.2527 0.0868
vn 0.9488 0.2886 -0.1282
vn 0.9616 0.2652 -0.0706
vn 0.9958 -0.0512 -0.0757
vn 0.9756 -0.1717 -0.1371
vn 0.6382 -0.7696 0.0226
vn 0.4095 -0.9122 -0.0130
vn 0.7506 0.4557 -0.4784
vn 0.8256 0.1405 -0.5465
vn 0.7775 -0.5937 -0.2076
vn 0.2913 -0.9445 -0.1516
vn 0.3347 -0.9422 -0.0153
vn 0.0014 -0.9999 -0.0112
vn 0.9815 0.1549 0.1126
vn 0.9918 0.1239 0.0326
vn 0.9701 0.0986 0.2219
vn 0.8599 -0.5003 0.1018
vn 0.7507 -0.6593 0.0422
vn 0.6093 -0.7699 0.1899
vn 0.7220 0.1284 0.6799
vn 0.5222 0.0182 0.8526
vn 0.6472 -0.7580 0.0808
vn 0.7045 -0.7080 0.0481
vn 0.5725 -0.8176 0.0615
vn 0.5589 -0.8077 0.1878
vn 0.4564 -0.5511 0.6986
vn -0.2328 0.1438 0.9618
vn -0.0269 -0.9896 0.1413
vn -0.2042 -0.4066 0.8905
vn -0.9394 0.2611 -0.2223
vn 0.0797 0.9696 -0.2314
vn 0.1001 0.9525 -0.2876
vn 0.3164 0.3060 -0.8979
vn -0.2236 0.6581 -0.7189
vn 0.2761 0.3776 -0.8838
vn -0.1830 0.4074 -0.8947
vn -0.1350 0.9902 0.0367
vn -0.2781 0.8621 -0.4236
vn -0.8341 0.4913 -0.2510
vn -0.3942 0.9096 0.1313
vn -0.5016 0.6613 -0.5577
vn -0.8040 0.4988 -0.3237
vn -0.5489 0.2887 -0.7844
vn -0.7313 0.2645 -0.6287
vn -0.8566 0.2103 -0.4712
vn -0.0321 0.9880 0.1513
vn -0.2594 0.9399 0.2222
vn -0.1365 0.9075 0.3972
vn -0.0768 0.9741 0.2127
vn -0.2298 0.9534 0.1953
vn -0.1256 0.9698 0.2089
vn -0.1182 0.9750 0.1880
vn -0.2147 0.9161 0.3386
vn -0.2702 0.8597 0.4334
vn -0.4058 0.8977 0.1714
vn -0.7596 0.6470 -0.0660
vn -0.4084 0.8886 0.2089
vn -0.2995 0.9478 0.1090
vn -0.2148 0.9676 0.1325
vn -0.8270 0.5337 -0.1768
vn -0.6717 0.7361 -0.0836
vn -0.6771 0.7342 0.0492
vn -0.3907 0.8616 0.3241
vn -0.3508 0.8905 0.2898
vn 0.2209 0.5297 -0.8189
vn 0.2909 -0.0585 -0.9550
vn 0.1972 -0.6404 -0.7423
vn -0.2982 0.2964 -0.9073
vn -0.7841 0.1342 -0.6060
vn -0.8603 0.1108 -0.4975
vn -0.4037 -0.1072 -0.9086
vn -0.8033 -0.1632 -0.5728
vn -0.8290 -0.3871 -0.4037
vn -0.1655 -0.5832 -0.7953
vn -0.2501 -0.9671 -0.0457
vn -0.5125 0.2565 0.8195
vn -0.3150 -0.9236 0.2186
vn -0.0158 -0.9990 0.0428
vn -0.4733 -0.3355 0.8145
vn -0.9435 0.0268 -0.3304
vn -0.9696 0.0196 -0.2440
vn -0.9970 0.0766 0.0056
vn -0.9913 0.1169 0.0605
vn -0.9000 -0.1866 0.3938
vn -0.6283 0.1755 0.7579
vn -0.7102 -0.6535 -0.2618
vn -0.6717 -0.7098 -0.2124
vn -0.7581 -0.6457 -0.0912
vn -0.4020 -0.9139 0.0562
vn -0.2586 -0.9561 -0.1380
vn 0.3067 0.2794 -0.9099
vn -0.2128 0.2414 0.9468
vn 0.9028 0.2367 0.3590
usemtl grape
s off
f 6/1/1 5/2/1 3/3/1 4/4/1
f 9/5/2 8/6/2 5/2/2 6/1/2
f 11/7/3 10/8/3 7/9/3 8/6/3
f 12/10/4 11/7/4 8/6/4 9/5/4
f 12/10/5 2/11/5 1/12/5 11/7/5
f 14/13/6 4/4/6 3/3/6 13/14/6
f 5/2/7 16/15/7 13/14/7 3/3/7
f 17/16/8 6/1/8 4/4/8 14/13/8
f 19/17/9 18/18/9 15/19/9 16/15/9
f 19/17/10 8/6/10 7/9/10 18/18/10
f 8/6/11 19/17/11 16/15/11 5/2/11
f 10/8/12 20/20/12 18/18/12 7/9/12
f 25/21/13 9/5/13 6/1/13 24/22/13
f 28/23/14 12/10/14 9/5/14 25/21/14
f 28/23/15 21/24/15 2/11/15 12/10/15
f 29/25/16 28/23/16 25/21/16 26/26/16
f 29/25/17 22/27/17 21/24/17 28/23/17
f 30/28/18 29/25/18 26/26/18 27/29/18
f 30/28/19 23/30/19 22/27/19 29/25/19
f 33/31/20 17/16/20 14/13/20 32/32/20
f 33/31/21 24/22/21 6/1/21 17/16/21
f 35/33/22 25/21/22 24/22/22 33/31/22
f 36/34/23 35/33/23 33/31/23 34/35/23
f 36/34/24 26/26/24 25/21/24 35/33/24
f 37/36/25 27/29/25 26/26/25 36/34/25
f 38/37/26 30/28/26 27/29/26 37/36/26
f 39/38/27 31/39/27 30/28/27 38/37/27
f 41/40/28 40/41/28 1/12/28 2/11/28
f 43/42/29 42/43/29 40/41/29 41/40/29
f 45/44/30 44/45/30 10/8/30 11/7/30
f 40/41/31 45/44/31 11/7/31 1/12/31
f 47/46/32 46/47/32 44/45/32 45/44/32
f 42/43/33 47/46/33 45/44/33 40/41/33
f 43/42/34 48/48/34 47/46/34 42/43/34
f 50/49/35 49/50/35 47/46/35 48/48/35
f 44/45/36 51/51/36 20/20/36 10/8/36
f 46/47/37 52/52/37 51/51/37 44/45/37
f 47/46/38 53/53/38 52/52/38 46/47/38
f 56/54/39 55/55/39 52/52/39 53/53/39
f 49/50/40 56/54/40 53/53/40 47/46/40
f 50/49/41 57/56/41 56/54/41 49/50/41
f 57/56/41 50/49/41 48/48/41 54/57/41
f 58/58/42 41/40/42 2/11/42 21/24/42
f 59/59/43 58/58/43 21/24/43 22/27/43
f 60/60/44 59/59/44 22/27/44 23/30/44
f 61/61/45 43/42/45 41/40/45 58/58/45
f 59/59/46 63/62/46 62/63/46 58/58/46
f 60/60/47 64/64/47 63/62/47 59/59/47
f 64/64/48 60/60/48 23/30/48 30/28/48
f 65/65/49 64/64/49 30/28/49 31/39/49
f 61/61/50 66/66/50 48/48/50 43/42/50
f 66/66/51 61/61/51 58/58/51 62/63/51
f 67/67/52 66/66/52 62/63/52 63/62/52
f 68/68/53 67/67/53 63/62/53 64/64/53
f 69/69/54 68/68/54 64/64/54 65/65/54
f 70/70/55 65/65/55 31/39/55 39/38/55
f 66/66/41 71/71/41 54/57/41 48/48/41
f 67/67/41 72/72/41 71/71/41 66/66/41
f 68/68/41 73/73/41 72/72/41 67/67/41
f 69/69/56 74/74/56 73/73/56 68/68/56
f 74/74/57 69/69/57 65/65/57 70/70/57
f 75/75/41 57/56/41 54/57/41 71/71/41
f 77/76/58 139/77/58 76/78/58
f 79/79/59 16/15/59 15/19/59 78/80/59
f 16/15/60 79/79/60 76/78/60 13/14/60
f 18/18/61 81/81/61 78/80/61 15/19/61
f 81/81/62 82/82/62 79/79/62 78/80/62
f 20/20/63 83/83/63 81/81/63 18/18/63
f 83/83/64 84/84/64 82/82/64 81/81/64
f 86/85/65 77/76/65 76/78/65 85/86/65
f 79/79/66 87/87/66 85/86/66 76/78/66
f 87/87/67 88/88/67 86/85/67 85/86/67
f 88/88/68 80/89/68 77/76/68 86/85/68
f 82/82/69 89/90/69 87/87/69 79/79/69
f 89/90/70 90/91/70 88/88/70 87/87/70
f 92/92/71 84/84/71 83/83/71 91/93/71
f 84/84/72 92/92/72 89/90/72 82/82/72
f 92/92/73 93/94/73 90/91/73 89/90/73
f 94/95/74 32/32/74 14/13/74 77/76/74
f 80/89/75 95/96/75 94/95/75 77/76/75
f 95/96/76 33/31/76 32/32/76 94/95/76
f 96/97/77 34/35/77 33/31/77 95/96/77
f 97/98/78 98/99/78 96/97/78 95/96/78
f 98/99/79 36/34/79 34/35/79 96/97/79
f 99/100/80 37/36/80 36/34/80 98/99/80
f 100/101/81 38/37/81 37/36/81 99/100/81
f 101/102/82 39/38/82 38/37/82 100/101/82
f 102/103/83 95/96/83 80/89/83 88/88/83
f 90/91/84 103/104/84 102/103/84 88/88/84
f 103/104/85 97/98/85 95/96/85 102/103/85
f 104/105/86 98/99/86 97/98/86 103/104/86
f 105/106/87 99/100/87 98/99/87 104/105/87
f 93/94/88 106/107/88 103/104/88 90/91/88
f 106/107/89 107/108/89 104/105/89 103/104/89
f 107/108/90 108/109/90 105/106/90 104/105/90
f 108/109/91 100/101/91 99/100/91 105/106/91
f 109/110/92 101/102/92 100/101/92 108/109/92
f 51/51/93 110/111/93 83/83/93 20/20/93
f 52/52/94 111/112/94 110/111/94 51/51/94
f 55/55/95 112/113/95 111/112/95 52/52/95
f 56/54/41 113/114/41 112/113/41 55/55/41
f 57/56/41 114/115/41 113/114/41 56/54/41
f 110/111/96 115/116/96 91/93/96 83/83/96
f 115/116/97 116/117/97 92/92/97 91/93/97
f 116/117/98 117/118/98 93/94/98 92/92/98
f 111/112/99 118/119/99 115/116/99 110/111/99
f 118/119/100 119/120/100 116/117/100 115/116/100
f 119/120/101 120/121/101 117/118/101 116/117/101
f 112/113/102 121/122/102 118/119/102 111/112/102
f 121/122/41 122/123/41 119/120/41 118/119/41
f 113/114/41 122/123/41 121/122/41 112/113/41
f 122/123/103 123/124/103 120/121/103 119/120/103
f 114/115/41 123/124/41 122/123/41 113/114/41
f 125/125/104 70/70/104 39/38/104 101/102/104
f 72/72/41 127/126/41 126/127/41 71/71/41
f 73/73/41 128/128/41 127/126/41 72/72/41
f 128/128/105 129/129/105 125/125/105 124/130/105
f 74/74/106 129/129/106 128/128/106 73/73/106
f 129/129/107 74/74/107 70/70/107 125/125/107
f 75/75/41 130/131/41 114/115/41 57/56/41
f 130/131/41 75/75/41 71/71/41 126/127/41
f 117/118/108 131/132/108 106/107/108 93/94/108
f 131/132/109 132/133/109 107/108/109 106/107/109
f 132/133/110 133/134/110 108/109/110 107/108/110
f 133/134/111 134/135/111 109/110/111 108/109/111
f 125/125/112 134/135/112 133/134/112 124/130/112
f 134/135/113 125/125/113 101/102/113 109/110/113
f 120/121/114 135/136/114 131/132/114 117/118/114
f 135/136/115 136/137/115 132/133/115 131/132/115
f 127/126/41 136/137/41 135/136/41 126/127/41
f 136/137/116 137/138/116 133/134/116 132/133/116
f 128/128/41 137/138/41 136/137/41 127/126/41
f 137/138/117 128/128/117 124/130/117 133/134/117
f 123/124/118 138/139/118 135/136/118 120/121/118
f 130/131/41 138/139/41 123/124/41 114/115/41
f 138/139/41 130/131/41 126/127/41 135/136/41
f 76/78/119 139/77/119 13/14/119
f 139/77/120 77/76/120 14/13/120
f 13/14/121 139/77/121 14/13/121
