# Blender v3.0.0 OBJ File: 'Thirty2D Attach Point Sprite Scramble Location.blend'
# www.blender.org
mtllib right_leg_upper.mtl
o right_leg_upper
v 0.432677 0.580303 0.410826
v 0.432676 0.580303 -0.410827
v -0.432675 0.580305 0.410827
v 0.000002 1.246047 -0.000000
v 0.330863 -0.580305 0.330863
v 0.330863 -0.580304 -0.330864
v -0.330864 -0.580304 0.330864
v -0.000001 -1.246047 -0.000000
v -0.330864 -0.580304 -0.330863
v -0.432676 0.580304 -0.410826
vt 0.875000 0.750000
vt 0.875000 0.500000
vt 0.750000 0.625000
vt 0.000000 0.000000
vt 0.000000 0.000000
vt 0.000000 0.000000
vt 0.000000 0.000000
vt 0.625000 0.750000
vt 0.000000 0.000000
vt 0.000000 0.000000
vt 0.875000 0.750000
vt 0.750000 0.625000
vt 0.875000 0.500000
vt 0.625000 0.750000
vt 0.625000 0.500000
vt 0.000000 0.000000
vt 0.000000 0.000000
vt 0.625000 0.500000
vn 0.8385 0.5449 -0.0000
vn 0.9962 -0.0874 -0.0000
vn 0.0000 0.5252 0.8510
vn 0.0000 -0.0687 0.9976
vn 0.8955 -0.4451 -0.0000
vn 0.0000 -0.4451 0.8955
vn -0.8955 -0.4451 0.0000
vn -0.0000 -0.4451 -0.8955
vn -0.0000 -0.0687 -0.9976
vn -0.9962 -0.0874 0.0000
vn -0.0000 0.5252 -0.8510
vn -0.8385 0.5449 0.0000
usemtl sky
s off
f 1/1/1 2/2/1 4/3/1
f 6/4/2 2/5/2 1/6/2 5/7/2
f 3/8/3 1/1/3 4/3/3
f 5/7/4 1/6/4 3/9/4 7/10/4
f 5/11/5 8/12/5 6/13/5
f 7/14/6 8/12/6 5/11/6
f 9/15/7 8/12/7 7/14/7
f 6/13/8 8/12/8 9/15/8
f 9/16/9 10/17/9 2/5/9 6/4/9
f 7/14/10 3/8/10 10/18/10 9/15/10
f 2/2/11 10/18/11 4/3/11
f 10/18/12 3/8/12 4/3/12
